<svg xmlns="http://www.w3.org/2000/svg" data-name="Layer 1" viewBox="0 0 32 32"><path fill="#e0e0e2" d="M30.5,25.01V29.5a2.00591,2.00591,0,0,1-2,2H3.5a2.00591,2.00591,0,0,1-2-2V25.01A6.99352,6.99352,0,0,1,6.86,18.21l3.16-.77A5.04883,5.04883,0,0,0,13.5,14.5h5a5.04883,5.04883,0,0,0,3.48,2.94l3.16.77A6.99352,6.99352,0,0,1,30.5,25.01Z"/><path fill="#afaeb3" d="M2.5,29.5V25.01A6.99352,6.99352,0,0,1,7.86,18.21l3.16-.77A5.04883,5.04883,0,0,0,14.5,14.5h-1a5.04883,5.04883,0,0,1-3.48,2.94l-3.16.77A6.99352,6.99352,0,0,0,1.5,25.01V29.5a2.00591,2.00591,0,0,0,2,2h1A2.00591,2.00591,0,0,1,2.5,29.5Z"/><path fill="#d9d8da" d="M18.9453 27.15556l1.41483.94322a1 1 0 0 0 1.51622-.55733L24.186 19.45758a3.99992 3.99992 0 0 0 0-2.19777L21.31 7.44221 18.5 7.8587V26.32351A1 1 0 0 0 18.9453 27.15556zM12.97467 27.15556l-1.41483.94322a1 1 0 0 1-1.51623-.55733L7.73394 19.45758a3.99992 3.99992 0 0 1 0-2.19777l2.828-9.89819 2.858.49708V26.32351A1 1 0 0 1 12.97467 27.15556z"/><path fill="#ffdaa7" d="M19.5,15.17v2.9a4.99824,4.99824,0,0,1-7,0v-2.9l2.39,1.59a1.99423,1.99423,0,0,0,2.22,0Z"/><path fill="#e5303e" d="M11,3.5a4.42636,4.42636,0,0,1,1.59689-2.17184A4.38185,4.38185,0,0,1,15.16228.5h1.67544A4.38743,4.38743,0,0,1,21,3.5"/><path fill="#b72732" d="M13.59692,1.32813A4.382,4.382,0,0,1,16.16229.5h-1a4.382,4.382,0,0,0-2.56537.82813A4.42652,4.42652,0,0,0,11,3.5h1A4.42652,4.42652,0,0,1,13.59692,1.32813Z"/><path fill="#8b8891" d="M20.277,17.0912a5.00152,5.00152,0,0,1-8.55408,0L9.69,17.52a6.992,6.992,0,0,0,12.62,0Z"/><path fill="#afaeb3" d="M26 27.5v4H25v-4a.5.5 0 0 1 1 0zM7 27.5v4H6v-4a.5.5 0 0 1 1 0z"/><rect width="3" height="10.549" x="14.5" y="20.951" fill="#8b8891"/><path fill="#e5303e" d="M12.0547,26.79687l-1.41483.94322a1,1,0,0,1-1.51622-.55733L6.814,19.09888a3.99989,3.99989,0,0,1,0-2.19776L9.642,7.00293,12.5,7.5V25.96482A1,1,0,0,1,12.0547,26.79687Z"/><path fill="#b72732" d="M10.12366,27.18274,7.814,19.09888a4.00007,4.00007,0,0,1,0-2.19776L10.5946,7.16864,9.642,7.00293,6.814,16.90112a4.00007,4.00007,0,0,0,0,2.19776l2.3097,8.08386a.99645.99645,0,0,0,1.46032.58551A.98529.98529,0,0,1,10.12366,27.18274Z"/><path fill="#e5303e" d="M25.19,19.1l-2.31,8.08a1.00443,1.00443,0,0,1-1.52.56l-1.41-.94a1.01245,1.01245,0,0,1-.45-.84V7.5l2.81-.42.17.57,2.71,9.25A4.10821,4.10821,0,0,1,25.19,19.1Z"/><path fill="#b72732" d="M18.75594,14.99606l-2.64656,1.76433a2,2,0,0,1-2.21876,0l-2.64656-1.76433a2,2,0,0,1-.87052-1.38127L9.5,7.5a30.67639,30.67639,0,0,1,11,0l-.87354,6.11479A2,2,0,0,1,18.75594,14.99606Z"/><path fill="#b72732" d="M22.48,7.65c-.28,1.99005-.57,3.98-.85,5.96A2.022,2.022,0,0,1,20.76,15l-1.26.84V7.5l2.81-.42Z"/><path fill="#ffdaa7" d="M21.5,7.5l-.14.99-.28,1.98-1.45,3.14A2.022,2.022,0,0,1,18.76,15l-.65.76c-.67.44995-1.55,1.44995-2.22,1L13.24,15a2.022,2.022,0,0,1-.87-1.39l-1.45-3.15-.28-1.97L10.5,7.5A30.80168,30.80168,0,0,1,21.5,7.5Z"/><path fill="#8b8891" d="M22.5,4.5a1.00237,1.00237,0,0,1-1,1h-11a1.00237,1.00237,0,0,1-1-1,1.003,1.003,0,0,1,1-1c1.74-.11,3.59-.17,5.54-.17,1.92,0,3.74005.06005,5.46.17A1.003,1.003,0,0,1,22.5,4.5Z"/><path fill="#58565d" d="M11.37,5.5H10.5a1.00237,1.00237,0,0,1-1-1,1.003,1.003,0,0,1,1-1,2.43481,2.43481,0,0,1,.27-.01,1.16755,1.16755,0,0,0-.4.89,1.15187,1.15187,0,0,0,.34.84A.92371.92371,0,0,0,11.37,5.5Z"/><path fill="#58565d" d="M22.16,5.25a.98459.98459,0,0,1-.66.25h-11a.98459.98459,0,0,1-.66-.25A.98429.98429,0,0,1,10.5,5c1.74-.11,3.59-.17,5.54-.17C17.96,4.83,19.78,4.89,21.5,5A.98429.98429,0,0,1,22.16,5.25Z"/><path fill="#fdc475" d="M21.5,7.5l-.14.99a47.80647,47.80647,0,0,0-5.32-.28A45.10909,45.10909,0,0,0,11.07,8.45c-.14.00995-.29.02-.43.04L10.5,7.5A30.80168,30.80168,0,0,1,21.5,7.5Z"/><path fill="#8b8891" d="M22.5,6.5a1.003,1.003,0,0,1-1,1,50.18056,50.18056,0,0,0-5.46-.29A45.10909,45.10909,0,0,0,11.07,7.45c-.19.00995-.38.03-.57.05a1.00644,1.00644,0,0,1-.25-.03.78276.78276,0,0,1-.14-.05.646.646,0,0,1-.16-.09.75811.75811,0,0,1-.11-.08.799.799,0,0,1-.13-.13A1.00511,1.00511,0,0,1,10.5,5.5c1.68-.13,3.49-.21,5.41-.22,1.99005,0,3.86.08,5.59.22A1.003,1.003,0,0,1,22.5,6.5Z"/><path fill="#fdc475" d="M19.5,15.17v1l-2.39,1.59a1.99423,1.99423,0,0,1-2.22,0L12.5,16.17v-1l2.39,1.59a1.99423,1.99423,0,0,0,2.22,0Z"/><path fill="#58565d" d="M18.2502 13.70469a.29148.29148 0 0 1-.46491-.02675l-.55307-.82961A.78224.78224 0 0 0 16.58136 12.5H15.41864a.78222.78222 0 0 0-.65084.34832l-.55588.83381a.29148.29148 0 0 1-.46253.02951l-2.82664-3.2524L10.92 10.46l.45 3.15A2.02184 2.02184 0 0 0 12.24 15l2.65 1.76a1.99408 1.99408 0 0 0 2.22 0L19.76 15a2.02184 2.02184 0 0 0 .87-1.39l.45-3.14M11.07 7.45c-.19.00995-.38.03-.57.05a1.00644 1.00644 0 0 1-.25-.03.78276.78276 0 0 1-.14-.05.646.646 0 0 1-.16-.09.75811.75811 0 0 1-.11-.08.799.799 0 0 1-.13-.13A1.00511 1.00511 0 0 1 10.5 5.5a2.43481 2.43481 0 0 1 .27-.01 1.16755 1.16755 0 0 0-.4.89 1.10412 1.10412 0 0 0 .7 1.07z"/></svg>