<svg xmlns="http://www.w3.org/2000/svg" data-name="Layer 1" viewBox="0 0 32 32"><path fill="#bc9a7b" d="M13.85 9.33c-.03.55-.57 1.04-1.34 1.41H12.5a8.50667 8.50667 0 0 1-2.43.74 8.71636 8.71636 0 0 1-1.1.11c-1.46.05-3.21-.31-3.6-1.04l-.4-.29a.59777.59777 0 0 1-.2-.68L4.8 9.5a1.758 1.758 0 0 0 .05-1.11l-.03-.08a.5807.5807 0 0 1 .03-.39.50531.50531 0 0 1 .23-.27L5.5 7.39C5.95 6.7 7.73 6.48 9.18 6.65a8.15782 8.15782 0 0 1 1.67.38C12.43 7.51 13.89 8.39 13.85 9.33zM27.17 9.15c0 1.28-2.78 2.31-4.78 2.46-1.46.11-3.22-.19-3.64-.9l-.21-.14-.2-.13a.59765.59765 0 0 1-.23-.68l.03-.07a1.78712 1.78712 0 0 0 0-1.12l-.03-.07a.60753.60753 0 0 1 .24-.68l.4-.27a2.06891 2.06891 0 0 1 1.29-.72 7.98206 7.98206 0 0 1 2.36-.16C24.4 6.82 27.17 7.87 27.17 9.15z"/><path fill="#8b6847" d="M12.13039,6.837l-.4063.26875a.58705.58705,0,0,0-.2333.6745l.0251.07561a1.76106,1.76106,0,0,1-.00213,1.11572l-.02538.07552a.587.587,0,0,0,.23073.67538l.40527.27029c.41972.71406,2.18793,1.00989,3.64194.90169,2.00433-.14914,4.78-1.18436,4.7824-2.46354s-2.76924-2.325-4.773-2.48173C14.32215,5.83543,12.55283,6.12452,12.13039,6.837Z"/><path fill="#b28966" d="M22.82242,10.71489l-.41681.25215a.587.587,0,0,0-.2603.66454l.022.07656a1.76117,1.76117,0,0,1-.04711,1.11473l-.02841.07443a.587.587,0,0,0,.2033.68413l.39405.28642c.39059.7304,2.14543,1.09728,3.60262,1.04781,2.00871-.0682,4.82383-.99066,4.87785-2.2687s-2.67324-2.43473-4.669-2.67217C25.05279,9.80254,23.27324,10.02005,22.82242,10.71489Z"/><path fill="#b28966" d="M16.18067,10.71489l-.41681.25215a.587.587,0,0,0-.2603.66454l.022.07656a1.76117,1.76117,0,0,1-.04711,1.11473l-.02841.07443a.587.587,0,0,0,.2033.68413l.394.28642c.39059.7304,2.14543,1.09728,3.60262,1.04781,2.00871-.0682,4.82383-.99066,4.87785-2.2687s-2.67324-2.43473-4.669-2.67217C18.411,9.80254,16.63149,10.02005,16.18067,10.71489Z"/><path fill="#8b6847" d="M17.53232,10.47384l-.41681.25215a.587.587,0,0,0-.2603.66453l.022.07657a1.761,1.761,0,0,1-.04711,1.11473l-.02841.07443a.587.587,0,0,0,.20331.68413l.394.28642c.3906.7304,2.14544,1.09728,3.60262,1.0478,2.00872-.06819,4.82384-.99065,4.87785-2.26869s-2.67323-2.43473-4.669-2.67217C19.76268,9.56149,17.98314,9.779,17.53232,10.47384Z"/><path fill="#bc9a7b" d="M12.21061,10.03576l-.41681.25215a.587.587,0,0,0-.2603.66454l.022.07656a1.76113,1.76113,0,0,1-.04712,1.11474l-.02841.07443a.58705.58705,0,0,0,.20331.68413l.394.28642c.3906.7304,2.14544,1.09728,3.60262,1.0478,2.00872-.0682,4.82384-.99066,4.87785-2.26869s-2.67323-2.43474-4.669-2.67218C14.441,9.12341,12.66143,9.34092,12.21061,10.03576Z"/><path fill="#8b6847" d="M7.47077,10.47384,7.054,10.726a.587.587,0,0,0-.26031.66453l.022.07657a1.7611,1.7611,0,0,1-.04711,1.11473l-.02841.07443a.587.587,0,0,0,.20331.68413l.394.28642c.39059.7304,2.14543,1.09728,3.60262,1.0478,2.00871-.06819,4.82383-.99065,4.87785-2.26869s-2.67324-2.43473-4.669-2.67217C9.70114,9.56149,7.9216,9.779,7.47077,10.47384Z"/><path fill="#b28966" d="M2.18067,9.71489,1.76386,9.967a.587.587,0,0,0-.2603.66454l.022.07656a1.76117,1.76117,0,0,1-.04711,1.11473l-.02841.07443a.587.587,0,0,0,.2033.68413l.394.28642c.39059.7304,2.14543,1.09728,3.60262,1.04781,2.00871-.0682,4.82383-.99066,4.87785-2.2687s-2.67324-2.43473-4.669-2.67217C4.411,8.80254,2.63149,9.02005,2.18067,9.71489Z"/><path fill="#afaeb3" d="M11.81687,22.86505,12,22.90814h8l.18313-.04309A16.00033,16.00033,0,0,0,31.5,12.90815H.5A16.00033,16.00033,0,0,0,11.81687,22.86505Z"/><path fill="#afaeb3" d="M11.81687,22.86505,12,22.90814h8l.18313-.04309A16.00033,16.00033,0,0,0,31.5,12.90815H.5A16.00033,16.00033,0,0,0,11.81687,22.86505Z"/><path fill="#afaeb3" d="M10.5,25.90814h11l-.382-.382A2.68612,2.68612,0,0,1,20.5,22.787l-9.01431-.00367a2.64664,2.64664,0,0,1-.60372,2.74281Z"/><path fill="#8b8891" d="M12.56287,24.30493a2.6746,2.6746,0,0,0-.077-1.52118q-.50005-.00018-1.00012-.00042a2.64666,2.64666,0,0,1-.60376,2.74285l-.382.382h1l.382-.382A2.66608,2.66608,0,0,0,12.56287,24.30493Z"/><path fill="#8b8891" d="M1.5,12.90814H.5a16.0004,16.0004,0,0,0,11.31689,9.95691L12,22.90814h4A15.60233,15.60233,0,0,1,3.33612,16.41228,15.99215,15.99215,0,0,1,1.5,12.90814Z"/></svg>