<svg xmlns="http://www.w3.org/2000/svg" data-name="Layer 1" viewBox="0 0 32 32"><path fill="#be6428" d="M28.31386,4.97355H14.68614L17.04242,1.426A2,2,0,0,1,19.342.63559l.25744.086a6.00009,6.00009,0,0,0,3.80122,0l.25744-.086a2,2,0,0,1,2.29953.79045Z"/><path fill="#b28966" d="M29.92,15.22C29.4,22.05,25.86,31.5,21.5,31.5c-2.11,0-4.03-2.21-5.5-5.27a32.63359,32.63359,0,0,1-2.92-11.01c-.37-4.86.58-10.77,2.92-12.34a2.69381,2.69381,0,0,1,.69-.32c1.24-.34,1.95.67,4.81.67s3.57-1.01,4.81-.67C29.15,3.34,30.33,9.9,29.92,15.22Z"/><path fill="#74563a" d="M28.06,4.01c-.09.04-.18.09-.29.15a14.15677,14.15677,0,0,1-1.87.81,12.942,12.942,0,0,1-4.09.74,13.38641,13.38641,0,0,1-4.7-.74,12.197,12.197,0,0,1-1.88-.81c-.11-.06-.19995-.11-.29-.15a3.206,3.206,0,0,1,1.75-1.45c1.24-.34,1.95.67,4.81.67s3.57-1.01,4.81-.67A3.206,3.206,0,0,1,28.06,4.01Z"/><path fill="#8b6847" d="M25.5249 17.36719a.49286.49286 0 0 1-.2417-.06348.49951.49951 0 0 1-.19531-.6792 5.62656 5.62656 0 0 0 .82568-3.68164 5.27559 5.27559 0 0 0-.3413-1.09912 5.77754 5.77754 0 0 1-.44532-1.62158 6.33587 6.33587 0 0 1 .63135-3.44873.49976.49976 0 0 1 .9043.42578 5.35615 5.35615 0 0 0-.54248 2.90918 4.897 4.897 0 0 0 .38134 1.36621 6.186 6.186 0 0 1 .397 1.29492 6.59034 6.59034 0 0 1-.93555 4.33985A.50179.50179 0 0 1 25.5249 17.36719zM20.19385 16.853a.5.5 0 0 1-.43994-.73682 5.9894 5.9894 0 0 0 .81152-3.24951 6.46178 6.46178 0 0 0-.19434-1.09766 7.606 7.606 0 0 1-.25537-1.7373 7.94467 7.94467 0 0 1 .41016-2.68848.49982.49982 0 1 1 .94922.31348 6.94279 6.94279 0 0 0-.35938 2.35107 6.55586 6.55586 0 0 0 .22754 1.52783 7.29638 7.29638 0 0 1 .21924 1.26026 6.96188 6.96188 0 0 1-.92773 3.79394A.49977.49977 0 0 1 20.19385 16.853zM19.332 27.67188a.5.5 0 0 1-.38428-.81934A3.32165 3.32165 0 0 0 19.835 24.709a2.81843 2.81843 0 0 0-.354-1.24121 5.39563 5.39563 0 0 1-.4419-1.23144 5.59353 5.59353 0 0 1 .78516-3.86621.50006.50006 0 1 1 .875.48437 4.64034 4.64034 0 0 0-.68164 3.17676 4.49168 4.49168 0 0 0 .3706 1.0166 3.74288 3.74288 0 0 1 .44678 1.64746 4.28075 4.28075 0 0 1-1.11767 2.7959A.49842.49842 0 0 1 19.332 27.67188zM23.38574 27.67188a.4997.4997 0 0 1-.38086-.82325 2.99407 2.99407 0 0 0 .88575-2.10547 2.63525 2.63525 0 0 0-.35254-1.0205 3.239 3.239 0 0 1-.45606-1.5918 3.46384 3.46384 0 0 1 .855-2.1582.50032.50032 0 0 1 .77832.6289 2.49263 2.49263 0 0 0-.6333 1.53516 2.32549 2.32549 0 0 0 .34717 1.13281 3.56109 3.56109 0 0 1 .4585 1.3916 3.93277 3.93277 0 0 1-1.12012 2.834A.49688.49688 0 0 1 23.38574 27.67188z"/><path fill="#be6428" d="M16.31386,4.97355H2.68614L5.04242,1.426A2,2,0,0,1,7.342.63559l.25744.086a6.00009,6.00009,0,0,0,3.80122,0l.25744-.086a2,2,0,0,1,2.29953.79045Z"/><path fill="#9a5023" d="M7.20789.60291A1.99536,1.99536,0,0,0,5.04242,1.426L2.68616,4.97351h1L6.04242,1.426A1.99154,1.99154,0,0,1,7.20789.60291Z"/><path fill="#8b6847" d="M18.92,15.22A32.63359,32.63359,0,0,1,16,26.23a32.63359,32.63359,0,0,1-2.92-11.01c-.37-4.86.58-10.77,2.92-12.34a3.98873,3.98873,0,0,1,1.06,1.13C18.62,6.4,19.23,11.17,18.92,15.22Z"/><path fill="#b28966" d="M17.92,15.22C17.4,22.05,13.86,31.5,9.5,31.5S1.6,22.05,1.08,15.22c-.31-4.05.3-8.82,1.86-11.21A3.206,3.206,0,0,1,4.69,2.56c1.24-.34,1.95.67,4.81.67s3.57-1.01,4.81-.67a3.206,3.206,0,0,1,1.75,1.45C17.62,6.4,18.23,11.17,17.92,15.22Z"/><path fill="#8b6847" d="M2.08,15.22c-.31-4.05.3-8.82,1.86-11.21A3.206,3.206,0,0,1,5.69,2.56c.00855-.00232.016-.00159.02448-.00379A2.06045,2.06045,0,0,0,4.69,2.56,3.206,3.206,0,0,0,2.94,4.01C1.38,6.4.77,11.17,1.08,15.22,1.6,22.05,5.14,31.5,9.5,31.5a3.06879,3.06879,0,0,0,.5-.06677C5.873,30.74738,2.57983,21.78564,2.08,15.22Z"/><path fill="#74563a" d="M16.06,4.01c-.09.04-.18.09-.29.15a14.15677,14.15677,0,0,1-1.87.81,12.942,12.942,0,0,1-4.09.74,13.38641,13.38641,0,0,1-4.7-.74,12.197,12.197,0,0,1-1.88-.81c-.11-.06-.19995-.11-.29-.15A3.206,3.206,0,0,1,4.69,2.56c1.24-.34,1.95.67,4.81.67s3.57-1.01,4.81-.67A3.206,3.206,0,0,1,16.06,4.01Z"/><path fill="#8b6847" d="M5.16846 23.19531a.4996.4996 0 0 1-.47315-.33789 11.24567 11.24567 0 0 1-.39795-6.86084 14.81394 14.81394 0 0 1 .79053-2.00244 7.14092 7.14092 0 0 0 .9043-3.61523 6.52218 6.52218 0 0 0-.68555-2.52686.50007.50007 0 0 1 .89649-.44336 7.50338 7.50338 0 0 1 .7871 2.91455 8.13589 8.13589 0 0 1-.99218 4.084 14.0776 14.0776 0 0 0-.74073 1.8706A10.27036 10.27036 0 0 0 5.6416 22.5332a.50091.50091 0 0 1-.47314.66211zM14.6084 20.24414a.5.5 0 0 1-.437-.74219 5.62774 5.62774 0 0 0 .82519-3.68164 5.27467 5.27467 0 0 0-.34131-1.09814A5.78655 5.78655 0 0 1 14.21 13.1001a6.33578 6.33578 0 0 1 .63135-3.44873.49976.49976 0 1 1 .9043.42578 5.35606 5.35606 0 0 0-.54248 2.90918 4.90519 4.90519 0 0 0 .38134 1.3667 6.1414 6.1414 0 0 1 .39746 1.29443 6.5918 6.5918 0 0 1-.93554 4.33887A.49981.49981 0 0 1 14.6084 20.24414zM10.49951 16.853a.5.5 0 0 1-.43994-.73682 5.9894 5.9894 0 0 0 .81152-3.24951 6.47343 6.47343 0 0 0-.19433-1.09863 7.591 7.591 0 0 1-.25537-1.73633 7.97268 7.97268 0 0 1 .40966-2.68848.50029.50029 0 0 1 .9502.31348 6.94587 6.94587 0 0 0-.35986 2.35107 6.55 6.55 0 0 0 .22754 1.52686 7.30759 7.30759 0 0 1 .21923 1.26123 6.96188 6.96188 0 0 1-.92773 3.79394A.49976.49976 0 0 1 10.49951 16.853zM7.332 27.67188a.5.5 0 0 1-.38428-.81934A3.32165 3.32165 0 0 0 7.835 24.709a2.81843 2.81843 0 0 0-.354-1.24121 5.39563 5.39563 0 0 1-.4419-1.23144 5.59353 5.59353 0 0 1 .78516-3.86621.50006.50006 0 1 1 .875.48437 4.64034 4.64034 0 0 0-.68164 3.17676 4.49168 4.49168 0 0 0 .3706 1.0166A3.74288 3.74288 0 0 1 8.835 24.69531a4.28075 4.28075 0 0 1-1.11767 2.7959A.49842.49842 0 0 1 7.332 27.67188zM11.38574 27.67188a.4997.4997 0 0 1-.38086-.82325 2.99407 2.99407 0 0 0 .88575-2.10547 2.63525 2.63525 0 0 0-.35254-1.0205 3.239 3.239 0 0 1-.45606-1.5918 3.46384 3.46384 0 0 1 .855-2.1582.50032.50032 0 0 1 .77832.6289 2.49263 2.49263 0 0 0-.6333 1.53516 2.32549 2.32549 0 0 0 .34717 1.13281 3.56109 3.56109 0 0 1 .4585 1.3916 3.93277 3.93277 0 0 1-1.12012 2.834A.49688.49688 0 0 1 11.38574 27.67188z"/><path fill="#74563a" d="M5.69,2.56A3.206,3.206,0,0,0,3.94,4.01C3.86,4.13,3.78,4.27,3.7,4.4c-.17-.08-.33-.16-.47-.24-.11-.06-.19995-.11-.29-.15A3.206,3.206,0,0,1,4.69,2.56a1.89313,1.89313,0,0,1,.51-.07,1.93967,1.93967,0,0,1,.24.02A1.83129,1.83129,0,0,1,5.69,2.56Z"/><path fill="#674b34" d="M5.69,2.56A3.206,3.206,0,0,0,3.94,4.01C3.86,4.13,3.78,4.27,3.7,4.4c-.17-.08-.33-.16-.47-.24-.11-.06-.19995-.11-.29-.15A3.206,3.206,0,0,1,4.69,2.56a1.89313,1.89313,0,0,1,.51-.07,1.93967,1.93967,0,0,1,.24.02A1.83129,1.83129,0,0,1,5.69,2.56Z"/></svg>