<svg xmlns="http://www.w3.org/2000/svg" data-name="Layer 1" viewBox="0 0 32 32"><path fill="#e0e0e2" d="M20.52119,9.18882l1.9579-3.87773a.45.45,0,0,1,.807.00735l1.88693,3.91275a.45.45,0,0,0,.33656.24925l4.293.66379a.45.45,0,0,1,.2424.7698l-3.13815,3.00368a.45.45,0,0,0-.13305.39712l.6953,4.288a.45.45,0,0,1-.65722.46841l-3.82642-2.05637a.45.45,0,0,0-.41879-.00382L18.7034,18.99735a.45.45,0,0,1-.64858-.48031l.7733-4.27459a.45.45,0,0,0-.12579-.39947l-3.08291-3.06036a.45.45,0,0,1,.25638-.76526l4.30434-.58547A.45.45,0,0,0,20.52119,9.18882Z"/><path fill="#d9d8da" d="M21.493,15.11658a.44991.44991,0,0,0-.12573-.39942L18.2843,11.6568a.45.45,0,0,1,.25641-.76526L22.845,10.306a.45011.45011,0,0,0,.34107-.243L24.40753,7.6438l-1.1214-2.32538a.45.45,0,0,0-.80707-.00732L20.52118,9.18878a.4499.4499,0,0,1-.34107.2431l-4.30432.58545a.45.45,0,0,0-.25634.76526L18.70233,13.843a.45007.45007,0,0,1,.1258.39947l-.77332,4.2746a.45.45,0,0,0,.64862.48028l2.30164-1.18341Z"/><path fill="#e0e0e2" d="M7.48782,3.3885a15.38569,15.38569,0,0,1,4.79881-2.741.44823.44823,0,0,1,.49355.70579A15.83333,15.83333,0,0,0,27.508,26.86068a.44767.44767,0,0,1,.366.77832,15.42065,15.42065,0,0,1-6.10285,3.204,15.99231,15.99231,0,0,1-15.0002-3.738A15.9186,15.9186,0,0,1,7.48782,3.3885Z"/><path fill="#d9d8da" d="M27.91058 27.00421a.44176.44176 0 0 0-.40265-.14355c-.43042.0636-.86181.1051-1.29315.13293A15.869 15.869 0 0 0 27.91058 27.00421zM8.77094 27.105A15.91858 15.91858 0 0 1 9.48779 3.38849a15.29921 15.29921 0 0 1 3.34827-2.13593.4448.4448 0 0 0-.54944-.605 15.38647 15.38647 0 0 0-4.79883 2.741A15.81916 15.81916 0 0 0 18.66138 31.34564 15.89363 15.89363 0 0 1 8.77094 27.105z"/></svg>