<svg xmlns="http://www.w3.org/2000/svg" data-name="Layer 1" viewBox="0 0 32 32"><rect width="31" height="27" x=".5" y="4.5" fill="#e0e0e2" rx="2"/><path fill="#d9d8da" d="M1.5,29.5V6.5a2,2,0,0,1,2-2h-1a2,2,0,0,0-2,2v23a2,2,0,0,0,2,2h1A2,2,0,0,1,1.5,29.5Z"/><path fill="#37b678" d="M11,20a.49971.49971,0,0,1-.5-.5v-4A.49971.49971,0,0,1,11,15h2a.5.5,0,0,1,0,1H11.5v3.5A.49971.49971,0,0,1,11,20Z"/><path fill="#37b678" d="M13 20H11a.5.5 0 0 1 0-1h2a.5.5 0 0 1 0 1zM13 18H11a.5.5 0 0 1 0-1h2a.5.5 0 0 1 0 1zM17 16H15a.5.5 0 0 1 0-1h2a.5.5 0 0 1 0 1zM17 20H15a.5.5 0 0 1 0-1h2a.5.5 0 0 1 0 1zM20 20H19a.49971.49971 0 0 1-.5-.5v-4A.49971.49971 0 0 1 19 15h1a1.50164 1.50164 0 0 1 1.5 1.5v2A1.50164 1.50164 0 0 1 20 20zm-.5-1H20a.50065.50065 0 0 0 .5-.5v-2A.50034.50034 0 0 0 20 16h-.5z"/><path fill="#37b678" d="M16 20a.49971.49971 0 0 1-.5-.5v-4a.5.5 0 0 1 1 0v4A.49971.49971 0 0 1 16 20zM5 26a.49971.49971 0 0 1-.5-.5V23.61816l-.05273.10547a.52141.52141 0 0 1-.89454 0L3.5 23.61816V25.5a.5.5 0 0 1-1 0v-4a.50013.50013 0 0 1 .94727-.22363L4 22.38184l.55273-1.10547a.49423.49423 0 0 1 .562-.2627A.49981.49981 0 0 1 5.5 21.5v4A.49971.49971 0 0 1 5 26zM9 26H7a.49971.49971 0 0 1-.5-.5v-4a.5.5 0 0 1 1 0V25h1V21.5a.5.5 0 0 1 1 0v4A.49971.49971 0 0 1 9 26zM11 26a.49971.49971 0 0 1-.5-.5v-4a.5.5 0 0 1 1 0v4A.49971.49971 0 0 1 11 26z"/><path fill="#37b678" d="M12,26H11a.5.5,0,0,1,0-1h1a.5.5,0,0,0,0-1H11a.5.5,0,0,1,0-1h1a1.5,1.5,0,0,1,0,3Z"/><path fill="#37b678" d="M12 24H11a.5.5 0 0 1 0-1h1a.5.5 0 0 0 0-1H11a.5.5 0 0 1 0-1h1a1.5 1.5 0 0 1 0 3zM19 26a.49971.49971 0 0 1-.5-.5v-4a.5.5 0 0 1 1 0v4A.49971.49971 0 0 1 19 26z"/><path fill="#37b678" d="M20 24H19a.5.5 0 0 1 0-1h1a.5.5 0 0 0 0-1H19a.5.5 0 0 1 0-1h1a1.5 1.5 0 0 1 0 3zM17 26a.49971.49971 0 0 1-.5-.5V22h-1v3.5a.5.5 0 0 1-1 0v-4A.49971.49971 0 0 1 15 21h2a.49971.49971 0 0 1 .5.5v4A.49971.49971 0 0 1 17 26z"/><path fill="#37b678" d="M17 24H15a.5.5 0 0 1 0-1h2a.5.5 0 0 1 0 1zM25 26a.49971.49971 0 0 1-.5-.5V22h-1v3.5a.5.5 0 0 1-1 0v-4A.49971.49971 0 0 1 23 21h2a.49971.49971 0 0 1 .5.5v4A.49971.49971 0 0 1 25 26z"/><path fill="#37b678" d="M25 24H23a.5.5 0 0 1 0-1h2a.5.5 0 0 1 0 1zM21.00049 26a.501.501 0 0 1-.44776-.27637l-1-2a.50006.50006 0 1 1 .89454-.44726l1 2a.50013.50013 0 0 1-.22364.6709A.49409.49409 0 0 1 21.00049 26zM27 26a.49971.49971 0 0 1-.5-.5v-4a.5.5 0 0 1 1 0v4A.49971.49971 0 0 1 27 26z"/><path fill="#37b678" d="M29.00049,26a.501.501,0,0,1-.44776-.27637l-1.249-2.498a.50006.50006,0,1,1,.89453-.44727l1.249,2.498a.50013.50013,0,0,1-.22364.6709A.49409.49409,0,0,1,29.00049,26Z"/><path fill="#37b678" d="M26.99951,24.40527a.49944.49944,0,0,1-.38379-.81933l2-2.40528a.49965.49965,0,1,1,.76856.63868l-2,2.40527A.49815.49815,0,0,1,26.99951,24.40527Z"/><path fill="#e5303e" d="M2.5,4.5h27a2,2,0,0,1,2,2v3a0,0,0,0,1,0,0H.5a0,0,0,0,1,0,0v-3A2,2,0,0,1,2.5,4.5Z"/><path fill="#b72732" d="M3.5,4.5h-1a2,2,0,0,0-2,2v3h1v-3A2,2,0,0,1,3.5,4.5Z"/><path fill="#f7991d" d="M4.98949 16.16928a.47286.47286 0 0 0 .35927-.26294L6.02608 14.5l.653 1.41957a.47283.47283 0 0 0 .35392.26915l1.47652.23935L7.41738 17.524A.47282.47282 0 0 0 7.285 17.93l.24282 1.57-1.31062-.73841a.47285.47285 0 0 0-.45647-.00427l-1.32308.71317.2701-1.56524a.47282.47282 0 0 0-.125-.408l-1.07323-1.1169zM25.00013 16.16928a.47284.47284 0 0 0 .35926-.26294L26.03671 14.5l.653 1.41957a.47283.47283 0 0 0 .35392.26915l1.47652.23935L27.428 17.524a.47286.47286 0 0 0-.13237.40606l.24283 1.57-1.31063-.73841a.47283.47283 0 0 0-.45646-.00427l-1.32308.71317.2701-1.56524a.47285.47285 0 0 0-.125-.408l-1.07323-1.1169z"/><rect width="3" height="7" x="4.5" y=".5" fill="#e0e0e2" rx="1.5"/><path fill="#d9d8da" d="M5.5,6V2A1.49569,1.49569,0,0,1,6.5.5918,1.48573,1.48573,0,0,0,4.5,2V6a1.48573,1.48573,0,0,0,2,1.4082A1.49569,1.49569,0,0,1,5.5,6Z"/><rect width="3" height="7" x="24.5" y=".5" fill="#e0e0e2" rx="1.5"/><path fill="#d9d8da" d="M25.5,6V2a1.49569,1.49569,0,0,1,1-1.4082A1.48573,1.48573,0,0,0,24.5,2V6a1.48573,1.48573,0,0,0,2,1.4082A1.49569,1.49569,0,0,1,25.5,6Z"/></svg>