<svg xmlns="http://www.w3.org/2000/svg" data-name="Layer 1" viewBox="0 0 32 32"><path fill="#e0e0e2" d="M25.5,13.5H23a.49971.49971,0,0,1-.5-.5V10.5a3,3,0,1,1,3,3Zm-2-1h2a2,2,0,1,0-2-2Z"/><path fill="#e0e0e2" d="M23,13.5H20.5a3,3,0,1,1,3-3V13A.49971.49971,0,0,1,23,13.5Zm-2.5-5a2,2,0,0,0,0,4h2v-2A2.00229,2.00229,0,0,0,20.5,8.5Z"/><path fill="#37b678" d="M30.5,15.5v11a1.003,1.003,0,0,1-1,1h-15v-12Z"/><rect width="16" height="1" x="14.5" y="15.5" fill="#00a653"/><path fill="#37b678" d="M31.5,13.5v1a1.003,1.003,0,0,1-1,1h-17v-3h8l1.36,1,1.64-1h6A1.003,1.003,0,0,1,31.5,13.5Z"/><path fill="#00a653" d="M17.37,26.38a1.00236,1.00236,0,0,1-.99,1.12H14.5v-12h-1v-3h2.23l.36,3Z"/><path fill="#e0e0e2" d="M15.37546,27.5H1.62454a1,1,0,0,1-.99315-1.11684l1.76471-15A1,1,0,0,1,3.38925,10.5h10.2215a1,1,0,0,1,.99315.88316l1.76471,15A1,1,0,0,1,15.37546,27.5Z"/><path fill="#d9d8da" d="M1.63141,26.38312l1.76471-15A.9999.9999,0,0,1,4.38922,10.5h-1a.9999.9999,0,0,0-.9931.88312l-1.76471,15A1,1,0,0,0,1.62457,27.5h1A1,1,0,0,1,1.63141,26.38312Z"/><path fill="#8b8891" d="M10.5,13a.49971.49971,0,0,1-.5-.5v-6a1.5,1.5,0,0,0-3,0v6a.5.5,0,0,1-1,0v-6a2.5,2.5,0,0,1,5,0v6A.49971.49971,0,0,1,10.5,13Z"/><circle cx="10.5" cy="12.5" r=".707" fill="#afaeb3"/><circle cx="6.505" cy="12.5" r=".707" fill="#afaeb3"/><rect width="3" height="12" x="21.5" y="15.5" fill="#e0e0e2"/><rect width="3" height="3" x="21.5" y="13.5" fill="#d9d8da"/><rect width="3" height="3" x="21.5" y="12.5" fill="#e0e0e2"/><path fill="#37b678" d="M7.70315,18.82871l.55872-1.16008a.2802.2802,0,0,1,.507.00449l.53877,1.17122a.28018.28018,0,0,0,.20973.15949l1.247.20214a.2802.2802,0,0,1,.15363.47439l-.92769.93088a.28019.28019,0,0,0-.07844.24063l.2033,1.31444a.2802.2802,0,0,1-.41445.287l-1.08627-.612a.28021.28021,0,0,0-.2705-.00253l-1.09708.59135a.28021.28021,0,0,1-.40908-.2943L7.064,20.82457A.28022.28022,0,0,0,6.99,20.58278l-.91149-.94857a.28021.28021,0,0,1,.16249-.47155l1.2493-.17814A.28021.28021,0,0,0,7.70315,18.82871Z"/></svg>