<svg xmlns="http://www.w3.org/2000/svg" data-name="Layer 1" viewBox="0 0 32 32"><path fill="#fdd402" d="M27.44261,17.65091a.55372.55372,0,0,0,.42746-.29845L28.559,16l.6041,1.39425a.55371.55371,0,0,0,.40731.32433l1.42847.26434-1.08677,1.043a.55375.55375,0,0,0-.16556.47193l.20244,1.53441-1.25552-.7447a.5537.5537,0,0,0-.53428-.0169l-1.299.66324.29706-1.5187a.55373.55373,0,0,0-.1357-.48095l-1.02042-1.11043Z"/><path fill="#afaeb3" d="M16 32a.49971.49971 0 0 1-.5-.5v-1a.5.5 0 0 1 1 0v1A.49971.49971 0 0 1 16 32zM28.5 15a.49971.49971 0 0 1-.5-.5V.5a.5.5 0 0 1 1 0v14A.49971.49971 0 0 1 28.5 15z"/><path fill="#fdd402" d="M2.81531,21.74a2.96738,2.96738,0,0,1,1.14108-.66027,2.97955,2.97955,0,0,0,3.69023,3.93255A2.99179,2.99179,0,1,1,2.81531,21.74Z"/><path fill="#fbbf13" d="M3.68073 25.97449a2.99294 2.99294 0 0 1 .10089-4.19586 3.03215 3.03215 0 0 1 .17474-.69892 2.98875 2.98875 0 0 0 1.43341 5.79035A2.96782 2.96782 0 0 1 3.68073 25.97449zM7.57849 25.1449c.02008-.04529.05017-.08667.06812-.13269a3.03706 3.03706 0 0 1-.40039.09771A3.00548 3.00548 0 0 0 7.57849 25.1449z"/><path fill="#afaeb3" d="M3.5,20a.49971.49971,0,0,1-.5-.5V.5a.5.5,0,0,1,1,0v19A.49971.49971,0,0,1,3.5,20Z"/><rect width="13" height="14" x="9.5" y="9.5" fill="#e0e0e2"/><rect width="1" height="14" x="9.5" y="9.5" fill="#d9d8da"/><path fill="#fbbf13" d="M27.825,20.44122l.1529-.78149a.55361.55361,0,0,0-.13569-.481l-1.02044-1.11041,1.44146-.17291a.55367.55367,0,0,0,.42749-.29847l.30274-.59423L28.559,16l-.6889,1.35242a.55368.55368,0,0,1-.42743.29846l-1.44147.17291,1.02039,1.11041a.55382.55382,0,0,1,.13574.481l-.29706,1.51868Z"/><path fill="#fdd402" d="M17.74939,20.10049,16,21.5l-1.74939-1.39951A2,2,0,0,1,13.5,18.53875v-4.0775a2,2,0,0,1,.75061-1.56174L16,11.5l1.74939,1.39951A2,2,0,0,1,18.5,14.46125v4.0775A2,2,0,0,1,17.74939,20.10049Z"/><path fill="#fbbf13" d="M15.25061,20.10046A1.99992,1.99992,0,0,1,14.5,18.53876V14.46124a2,2,0,0,1,.75061-1.56176L16.5,11.9l-.5-.4-1.74939,1.39948A2,2,0,0,0,13.5,14.46124v4.07752a1.99992,1.99992,0,0,0,.75061,1.5617L16,21.5l.5-.4Z"/><path fill="#fdd402" d="M22.5,21.9l-1.53644-1.84373A2,2,0,0,1,20.5,18.7759V14.2241a2,2,0,0,1,.46356-1.28037L22.5,11.1"/><path fill="#fbbf13" d="M21.96356,20.05627A2.00016,2.00016,0,0,1,21.5,18.77588V14.22406a2.00012,2.00012,0,0,1,.46356-1.28033L22.5,12.3V11.1l-1.53644,1.84375A2.00012,2.00012,0,0,0,20.5,14.22406v4.55182a2.00016,2.00016,0,0,0,.46356,1.28039L22.5,21.9V20.7Z"/><path fill="#fdd402" d="M9.5,11.1l1.53644,1.84373A2,2,0,0,1,11.5,14.2241v4.5518a2,2,0,0,1-.46356,1.28037L9.5,21.9"/><polygon fill="#fbbf13" points="10.5 12.3 9.5 11.1 9.5 21.9 10.5 20.7 10.5 12.3"/><path fill="#f7991d" d="M16,28.5a13.6,13.6,0,0,1-6.5-5h13a13.6,13.6,0,0,1-6.5,5Z"/><path fill="#e37626" d="M12.75,26a13.61231,13.61231,0,0,1-2.25-2.5h-1a13.6,13.6,0,0,0,6.5,5c.15643-.05743.32513-.1239.5-.1958A13.64953,13.64953,0,0,1,12.75,26Z"/><path fill="#f7991d" d="M22.5,9.5H9.5a13.72,13.72,0,0,1,6.5-5,13.6,13.6,0,0,1,6.5,5Z"/><path fill="#e37626" d="M12.832,6.937a13.60538,13.60538,0,0,1,3.67859-2.23663C16.332,4.62671,16.15948,4.55853,16,4.5a13.72,13.72,0,0,0-6.5,5h1A13.7318,13.7318,0,0,1,12.832,6.937Z"/><circle cx="16" cy="29.5" r="1.136" fill="#fdd402"/><path fill="#fbbf13" d="M15.86414,29.5A1.12747,1.12747,0,0,1,16.5,28.49237a1.11159,1.11159,0,0,0-.5-.12823,1.13586,1.13586,0,1,0,0,2.27172,1.11159,1.11159,0,0,0,.5-.12823A1.12747,1.12747,0,0,1,15.86414,29.5Z"/><circle cx="28.5" cy="15.5" r="1" fill="#e5303e"/><path fill="#b72732" d="M28.5,15.5a.98557.98557,0,0,1,.5-.84674A.972.972,0,0,0,28.5,14.5a1,1,0,0,0,0,2,.972.972,0,0,0,.5-.15326A.98565.98565,0,0,1,28.5,15.5Z"/><path fill="#afaeb3" d="M16 4a.49971.49971 0 0 1-.5-.5V.5a.5.5 0 0 1 1 0v3A.49971.49971 0 0 1 16 4zM23.5 24H8.5a.5.5 0 0 1 0-1h15a.5.5 0 0 1 0 1z"/><path fill="#8b8891" d="M9,23.5a.49971.49971,0,0,1,.5-.5h-1a.5.5,0,0,0,0,1h1A.49971.49971,0,0,1,9,23.5Z"/><path fill="#afaeb3" d="M23.5,10H8.5a.5.5,0,0,1,0-1h15a.5.5,0,0,1,0,1Z"/><path fill="#8b8891" d="M9,9.5A.49971.49971,0,0,1,9.5,9h-1a.5.5,0,0,0,0,1h1A.49971.49971,0,0,1,9,9.5Z"/><circle cx="16" cy="3.5" r="1.158" fill="#fdd402"/><path fill="#fbbf13" d="M15.84241,3.5A1.15037,1.15037,0,0,1,16.5,2.46661a1.13514,1.13514,0,0,0-.5-.12426,1.15762,1.15762,0,0,0,0,2.31524,1.13528,1.13528,0,0,0,.5-.12426A1.15028,1.15028,0,0,1,15.84241,3.5Z"/><circle cx="3.5" cy="20.5" r="1" fill="#e5303e"/><path fill="#b72732" d="M3.5,20.5a.98557.98557,0,0,1,.5-.84674A.972.972,0,0,0,3.5,19.5a1,1,0,0,0,0,2,.972.972,0,0,0,.5-.15326A.98565.98565,0,0,1,3.5,20.5Z"/></svg>