<svg xmlns="http://www.w3.org/2000/svg" data-name="Layer 1" viewBox="0 0 32 32"><path fill="#58565d" d="M30.46,26.6v2.9a2.00591,2.00591,0,0,1-2,2h-25a1.99943,1.99943,0,0,1-2-2V26.6a6.96887,6.96887,0,0,1,5.02-6.7,5.80468,5.80468,0,0,1,1.02-.23l8.46-1.17,8.45,1.17a5.45707,5.45707,0,0,1,.99005.22A6.96583,6.96583,0,0,1,30.46,26.6Z"/><path fill="#3c3b41" d="M2.46,29.5V26.6a6.96887,6.96887,0,0,1,5.02-6.7,5.80468,5.80468,0,0,1,1.02-.23l7.95972-1.10077L15.96,18.5,7.5,19.67a5.80468,5.80468,0,0,0-1.02.23,6.96887,6.96887,0,0,0-5.02,6.7v2.9a1.99943,1.99943,0,0,0,2,2h1A1.99943,1.99943,0,0,1,2.46,29.5Z"/><path fill="#3c3b41" d="M25.86,21.56c.25,4.14-5.58,5.12-9.56,5.16a19.68745,19.68745,0,0,1-7.15-.91c-2.9-1.12-3.28-3.18-2.75-5.55.03-.12.05-.24005.08-.36005a5.80468,5.80468,0,0,1,1.02-.23l8.46-1.17,8.45,1.17a5.45707,5.45707,0,0,1,.99005.22A5.19637,5.19637,0,0,1,25.86,21.56Z"/><path fill="#58565d" d="M25.86,20.56c.25,4.14-5.58,5.12-9.56,5.16a19.68745,19.68745,0,0,1-7.15-.91c-2.9-1.12-3.28-3.18-2.75-5.55.02-.08.03-.15.05-.23.09-.4.17-.79.25-1.19a42.65928,42.65928,0,0,0,.58-4.34,45.82425,45.82425,0,0,1,.35-5.11c.52-2.63,1.76-5.57,4.76-6.99a8.93936,8.93936,0,0,1,7.63-.06c3.06,1.52,4.05,4.17,4.34,6.96.21,2.07,0,4.14.09,6.21a13.94172,13.94172,0,0,0,.47,3.14A13.52616,13.52616,0,0,1,25.86,20.56Z"/><path fill="#3c3b41" d="M10.15,24.81c-2.9-1.12-3.28-3.18-2.75-5.55.02-.08.03-.15.05-.23.09-.4.17-.79.25-1.19a42.65928,42.65928,0,0,0,.58-4.34,45.82425,45.82425,0,0,1,.35-5.11c.52-2.63,1.76-5.57,4.76-6.99A9.31209,9.31209,0,0,1,16.85376.53949,9.32013,9.32013,0,0,0,12.39,1.4C9.39,2.82,8.15,5.76,7.63,8.39a45.82425,45.82425,0,0,0-.35,5.11,42.65928,42.65928,0,0,1-.58,4.34c-.08.4-.16.79-.25,1.19-.02.08-.03.15-.05.23-.53,2.37-.15,4.43,2.75,5.55a19.46394,19.46394,0,0,0,7.04206.91046A17.58816,17.58816,0,0,1,10.15,24.81Z"/><circle cx="16" cy="27.707" r=".5" fill="#3c3b41"/><circle cx="16" cy="29.707" r=".5" fill="#3c3b41"/><path fill="#3c3b41" d="M14.01 21.02a.50435.50435 0 0 1-.45.55 7.94267 7.94267 0 0 1-.85.04 8.85686 8.85686 0 0 1-6.26-2.58c.09-.4.17-.79.25-1.19l.05.05a7.83323 7.83323 0 0 0 6.71 2.68A.51153.51153 0 0 1 14.01 21.02zM17.64509 18.65932a8.72727 8.72727 0 0 1-2.52065-.778.4999.4999 0 1 1 .43536-.9 7.65662 7.65662 0 0 0 3.44713.76809 7.4612 7.4612 0 0 0 2.1367-.35591.50007.50007 0 1 1 .30519.95244 8.46707 8.46707 0 0 1-2.42407.40319A8.37379 8.37379 0 0 1 17.64509 18.65932zM21.27383 11.4349a.50009.50009 0 0 1-.3193-.81391 4.41372 4.41372 0 0 0 .96055-2.11163A4.49224 4.49224 0 0 0 21.42954 5.698a.50037.50037 0 0 1 .88147-.47379 5.51211 5.51211 0 0 1 .59179 3.44341 5.42872 5.42872 0 0 1-1.17655 2.59007A.50032.50032 0 0 1 21.27383 11.4349z"/><path fill="#ffdaa7" d="M21.70417,11c.21637,2.97294-2.27371,6.9239-5.70431,6.9239-3.33658,0-5.92205-3.89976-5.70431-6.9239.12551-1.74319,1.17016-3.02471,2.29623-4.40612,1.08447-1.33037,2.05608-2.52229,3.40808-2.51778,1.3222.00442,2.24394,1.17891,3.35946,2.47673A7.884,7.884,0,0,1,21.70417,11Z"/><path fill="#fdc475" d="M11.29553,11c.12555-1.74323,1.17017-3.02472,2.29627-4.40613.94323-1.1571,1.80175-2.20758,2.89874-2.4591a2.17144,2.17144,0,0,0-.49066-.05866c-1.352-.00452-2.32361,1.18738-3.40808,2.51776C11.4657,7.97528,10.42108,9.25677,10.29553,11c-.21771,3.02411,2.36774,6.92389,5.70435,6.92389a4.40215,4.40215,0,0,0,.50311-.03595C13.41132,17.52625,11.08881,13.87177,11.29553,11Z"/></svg>