<svg xmlns="http://www.w3.org/2000/svg" data-name="Layer 1" viewBox="0 0 32 32"><path fill="#d9d8da" d="M27.95,19.8l-3,4.5.13-3.8.51-.76.7-1.05a3.75207,3.75207,0,0,0-3.12-5.83,1.61823,1.61823,0,0,0-.22.01,3.59752,3.59752,0,0,0-1.7.53l-.17.1-2.71-.71,1.85-1.1a5.63764,5.63764,0,0,1,2.48-.81c.16-.01.31-.02.47-.02a5.78346,5.78346,0,0,1,5.69,4.94A5.72132,5.72132,0,0,1,27.95,19.8Z"/><path fill="#fdd402" d="M15.58222,4.27673v-.7499A3.02682,3.02682,0,0,1,18.609.5h0a3.02683,3.02683,0,0,1,3.02683,3.02683v.76192Z"/><path fill="#fbbf13" d="M16.58221 4.27673V3.52679A3.02075 3.02075 0 0 1 19.10907.55042a2.97938 2.97938 0 0 0-3.52686 2.97637v.74994l6.05365.012v-.002zM21.08221 31.5h-5a2 2 0 0 1-2-2V26.70653h9V29.5A2 2 0 0 1 21.08221 31.5z"/><path fill="#eab220" d="M15.08221,29.5V26.70648h-1V29.5a2,2,0,0,0,2,2h1A2,2,0,0,1,15.08221,29.5Z"/><path fill="#fbbf13" d="M16.08,24a1.498,1.498,0,0,1-1.5,1.5H11.9a3.10375,3.10375,0,0,1-.69-.08A2.996,2.996,0,0,1,8.91,22.69L8.14,10.44a.99834.99834,0,0,0-1-.94H3.08l1-1.5-1-1.5L8,7.16a3.00617,3.00617,0,0,1,2.6,2.86l.43,10.78a1.29628,1.29628,0,0,0,.04.21.98534.98534,0,0,0,.69.68l2.82.81A1.498,1.498,0,0,1,16.08,24Z"/><polygon fill="#eab220" points="4.178 6.647 3.08 6.5 4.08 8 3.08 9.5 4.08 9.5 5.08 8 4.178 6.647"/><path fill="#eab220" d="M9.91,22.69,9.14,10.44a.99834.99834,0,0,0-1-.94h-1a.99834.99834,0,0,1,1,.94l.77,12.25A2.996,2.996,0,0,0,11.21,25.42a3.10375,3.10375,0,0,0,.69.08h1a3.10375,3.10375,0,0,1-.69-.08A2.996,2.996,0,0,1,9.91,22.69Z"/><path fill="#afaeb3" d="M22.95 12.87a3.59752 3.59752 0 0 0-1.7.53l-.17.1-2.71-.71 1.85-1.1a5.63764 5.63764 0 0 1 2.48-.81C22.75 11.55 22.84 12.22 22.95 12.87zM26.45 22.05l-1.5 2.25.13-3.8.51-.76A8.1708 8.1708 0 0 1 26.45 22.05z"/><path fill="#eab220" d="M16.08 24a1.498 1.498 0 0 1-1.5 1.5H11.9a3.10375 3.10375 0 0 1-.69-.08 5.07435 5.07435 0 0 1-.57-2.88 5.27011 5.27011 0 0 1 .43-1.53.98534.98534 0 0 0 .69.68l2.82.81A1.498 1.498 0 0 1 16.08 24zM15.91 5.04a1.949 1.949 0 0 1-.22-.03h.06c.01-.01.01 0 .01 0A.301.301 0 0 1 15.91 5.04z"/><path fill="#fdd402" d="M16.59254,6.00331a3.09667,3.09667,0,0,0-.19913-.603c-.31922-.702,1.05931-.24472.29442-.39433,2.316.002,2.632-.996,4.948-.994-.01269.36936-1.0251.7401-1.03613,1.11175-.01358.45763.97494.91666.9676,1.37619-.06008,3.76436.15848,7.56331,1.78783,10.9161.82373,1.695,2.01189,3.29652,2.17743,5.17381a5.76315,5.76315,0,0,1-2.42557,5.015,7.74717,7.74717,0,0,1-5.543,1.26682,7.49861,7.49861,0,0,1-4.28594-1.98793,5.382,5.382,0,0,1-1.6343-4.34752c.22885-1.95979,1.64571-3.53249,2.67065-5.21852a16.31821,16.31821,0,0,0,2.0376-5.44905A15.46978,15.46978,0,0,0,16.59254,6.00331Z"/><path fill="#fbbf13" d="M18.564,28.87164a7.49794,7.49794,0,0,1-4.28595-1.98791,5.38211,5.38211,0,0,1-1.63434-4.34754c.22888-1.95977,1.64575-3.53247,2.67065-5.2185a16.31729,16.31729,0,0,0,2.0376-5.449,15.46833,15.46833,0,0,0,.24054-5.86535,3.09546,3.09546,0,0,0-.1991-.603c-.17517-.38519.15583-.41943.36841-.39832,1.84967-.01739,2.4234-.67279,3.84454-.90448a.26387.26387,0,0,0,.02948-.08551c-2.28857-.002-2.63159.96894-4.874.99-.21258-.02111-.54358.01313-.36841.39832a3.09546,3.09546,0,0,1,.1991.603,15.46833,15.46833,0,0,1-.24054,5.86535,16.31729,16.31729,0,0,1-2.0376,5.449c-1.0249,1.686-2.44177,3.25873-2.67065,5.2185a5.38211,5.38211,0,0,0,1.63434,4.34754,7.49794,7.49794,0,0,0,4.286,1.98791,8.62946,8.62946,0,0,0,1.6286.05732C18.9823,28.91626,18.77222,28.89948,18.564,28.87164Z"/><path fill="#37b678" d="M25.22,24.81a32.0485,32.0485,0,0,1-6.02.69,31.46977,31.46977,0,0,1-6.17016-.48059L13.03,25.02c-.37006-.06-.74005-.13-1.07-.2h-.01a4.57627,4.57627,0,0,1-.32-2.07c.34.08.7.15,1.08.22a32.001,32.001,0,0,0,6.49.53,31.86991,31.86991,0,0,0,6.34-.76A5.19485,5.19485,0,0,1,25.22,24.81Z"/><path fill="#00a653" d="M13.03,25.02c-.37006-.06-.74005-.13-1.07-.2h-.01a4.57627,4.57627,0,0,1-.32-2.07c.34.08.7.15,1.08.22V23a4.50489,4.50489,0,0,0,.04,1.01A4.12617,4.12617,0,0,0,13.03,25.02Z"/><path fill="#37b678" d="M21.64,4.01c-.03.79-.05,1.59-.07,2.38995v.1H16.68a4.02044,4.02044,0,0,0-.09-.5,2.6484,2.6484,0,0,0-.2-.6A2.4142,2.4142,0,0,0,14.69,4.01Z"/><path fill="#00a653" d="M17.39,5.4A2.4142,2.4142,0,0,0,15.69,4.01h-1A2.4142,2.4142,0,0,1,16.39,5.4a2.6484,2.6484,0,0,1,.2.6,4.02044,4.02044,0,0,1,.09.5h1a4.02044,4.02044,0,0,0-.09-.5A2.6484,2.6484,0,0,0,17.39,5.4Z"/></svg>