<svg xmlns="http://www.w3.org/2000/svg" data-name="Layer 1" viewBox="0 0 32 32"><path fill="#37b678" d="M5.5 32a.49971.49971 0 0 1-.5-.5v-2a.5.5 0 0 1 1 0v2A.49971.49971 0 0 1 5.5 32zM7.6001 32a.49971.49971 0 0 1-.5-.5v-2a.5.5 0 1 1 1 0v2A.49972.49972 0 0 1 7.6001 32zM9.7002 32a.49971.49971 0 0 1-.5-.5v-2a.5.5 0 0 1 1 0v2A.49972.49972 0 0 1 9.7002 32zM11.7998 32a.49972.49972 0 0 1-.5-.5v-2a.5.5 0 0 1 1 0v2A.49971.49971 0 0 1 11.7998 32zM13.8999 32a.49972.49972 0 0 1-.5-.5v-2a.5.5 0 1 1 1 0v2A.49971.49971 0 0 1 13.8999 32zM16 32a.49971.49971 0 0 1-.5-.5v-2a.5.5 0 0 1 1 0v2A.49971.49971 0 0 1 16 32zM18.09961 32a.49971.49971 0 0 1-.5-.5v-2a.5.5 0 0 1 1 0v2A.49971.49971 0 0 1 18.09961 32zM20.2002 32a.49971.49971 0 0 1-.5-.5v-2a.5.5 0 0 1 1 0v2A.49972.49972 0 0 1 20.2002 32zM22.2998 32a.49972.49972 0 0 1-.5-.5v-2a.5.5 0 0 1 1 0v2A.49971.49971 0 0 1 22.2998 32zM24.40039 32a.49971.49971 0 0 1-.5-.5v-2a.5.5 0 0 1 1 0v2A.49971.49971 0 0 1 24.40039 32zM26.5 32a.49971.49971 0 0 1-.5-.5v-2a.5.5 0 0 1 1 0v2A.49971.49971 0 0 1 26.5 32zM5.5 3A.49971.49971 0 0 1 5 2.5V.5a.5.5 0 0 1 1 0v2A.49971.49971 0 0 1 5.5 3zM7.6001 3a.49971.49971 0 0 1-.5-.5V.5a.5.5 0 1 1 1 0v2A.49972.49972 0 0 1 7.6001 3zM9.7002 3a.49971.49971 0 0 1-.5-.5V.5a.5.5 0 0 1 1 0v2A.49972.49972 0 0 1 9.7002 3zM11.7998 3a.49972.49972 0 0 1-.5-.5V.5a.5.5 0 0 1 1 0v2A.49971.49971 0 0 1 11.7998 3zM13.8999 3a.49972.49972 0 0 1-.5-.5V.5a.5.5 0 0 1 1 0v2A.49971.49971 0 0 1 13.8999 3zM16 3a.49971.49971 0 0 1-.5-.5V.5a.5.5 0 0 1 1 0v2A.49971.49971 0 0 1 16 3zM18.09961 3a.49971.49971 0 0 1-.5-.5V.5a.5.5 0 0 1 1 0v2A.49971.49971 0 0 1 18.09961 3zM20.2002 3a.49971.49971 0 0 1-.5-.5V.5a.5.5 0 0 1 1 0v2A.49972.49972 0 0 1 20.2002 3zM22.2998 3a.49972.49972 0 0 1-.5-.5V.5a.5.5 0 0 1 1 0v2A.49971.49971 0 0 1 22.2998 3zM24.40039 3a.49971.49971 0 0 1-.5-.5V.5a.5.5 0 0 1 1 0v2A.49971.49971 0 0 1 24.40039 3zM26.5 3a.49971.49971 0 0 1-.5-.5V.5a.5.5 0 0 1 1 0v2A.49971.49971 0 0 1 26.5 3z"/><rect width="22" height="28.236" x="5" y="1.882" fill="#37b678"/><rect width="1" height="28.236" x="5" y="1.882" fill="#00a653"/><path fill="#00a653" d="M23.5,27H8.5a.49971.49971,0,0,1-.5-.5V5.5A.49971.49971,0,0,1,8.5,5h15a.49971.49971,0,0,1,.5.5v21A.49971.49971,0,0,1,23.5,27Z"/><path fill="#fff" d="M18.98375 17.12608l.93859-.93858a.26515.26515 0 0 0 0-.375l-.93859-.93859a.26519.26519 0 0 1-.07766-.18749V13.35907a.26516.26516 0 0 0-.26515-.26516H17.31358a.26513.26513 0 0 1-.18749-.07766l-.9386-.9386a.26517.26517 0 0 0-.375 0l-.9386.9386a.26513.26513 0 0 1-.18749.07766H13.35906a.26516.26516 0 0 0-.26515.26516v1.32737a.26519.26519 0 0 1-.07766.18749l-.93859.93859a.26515.26515 0 0 0 0 .375l.93859.93858a.26519.26519 0 0 1 .07766.18749V18.641a.26515.26515 0 0 0 .26515.26515h1.32737a.26511.26511 0 0 1 .18749.07766l.93859.93859a.26517.26517 0 0 0 .375 0l.93859-.93859a.26511.26511 0 0 1 .18749-.07766h1.32737a.26515.26515 0 0 0 .26515-.26515V17.31357A.26519.26519 0 0 1 18.98375 17.12608zM21.45473 22h.09054A2.45473 2.45473 0 0 1 24 24.45473v2.05269A.49258.49258 0 0 1 23.50742 27H21.45473A2.45473 2.45473 0 0 1 19 24.54527v-.09054A2.45473 2.45473 0 0 1 21.45473 22z"/><circle cx="21.5" cy="24.5" r=".5" fill="#fdd402"/><path fill="#fff" d="M10.45473,22h2.05269A.49258.49258,0,0,1,13,22.49258v2.05269A2.45473,2.45473,0,0,1,10.54527,27h-.09054A2.45473,2.45473,0,0,1,8,24.54527v-.09054A2.45473,2.45473,0,0,1,10.45473,22Z" transform="rotate(180 10.5 24.5)"/><circle cx="10.5" cy="24.5" r=".5" fill="#fdd402"/><path fill="#fff" d="M21.45473,5h2.05269A.49258.49258,0,0,1,24,5.49258V7.54527A2.45473,2.45473,0,0,1,21.54527,10h-.09054A2.45473,2.45473,0,0,1,19,7.54527V7.45473A2.45473,2.45473,0,0,1,21.45473,5Z"/><circle cx="21.5" cy="7.5" r=".5" fill="#fdd402"/><path fill="#fff" d="M10.45473,5h.09054A2.45473,2.45473,0,0,1,13,7.45473V9.50742A.49258.49258,0,0,1,12.50742,10H10.45473A2.45473,2.45473,0,0,1,8,7.54527V7.45473A2.45473,2.45473,0,0,1,10.45473,5Z" transform="rotate(-180 10.5 7.5)"/><circle cx="10.5" cy="7.5" r=".5" fill="#fdd402"/><circle cx="16" cy="16" r=".5" fill="#fdd402"/></svg>