<svg xmlns="http://www.w3.org/2000/svg" data-name="Layer 1" viewBox="0 0 32 32"><path fill="#3f6db4" d="M30.5,25.01V29.5a2.00591,2.00591,0,0,1-2,2H3.5a2.00591,2.00591,0,0,1-2-2V25.01A6.99352,6.99352,0,0,1,6.86,18.21l2.85-.69,2.31-.08c1.56-.37.85-1.46,1.48-2.94h5a5.04883,5.04883,0,0,0,3.48,2.94l.31.08,2.85.69A6.99352,6.99352,0,0,1,30.5,25.01Z"/><path fill="#1f53a4" d="M2.5,29.5V25.01A6.99352,6.99352,0,0,1,7.86,18.21l2.85-.69.31-.08A5.04883,5.04883,0,0,0,14.5,14.5h-1a5.222,5.222,0,0,1-3.40742,3.14246L9.71,17.52l-2.85.69A6.99352,6.99352,0,0,0,1.5,25.01V29.5a2.00591,2.00591,0,0,0,2,2h1A2.00591,2.00591,0,0,1,2.5,29.5Z"/><path fill="#e0e0e2" d="M22.29,17.52c-.08.16-.16.3-.25.45A7.04539,7.04539,0,0,1,16,21.83a7.04539,7.04539,0,0,1-6.04-3.86c-.09-.15-.17-.29-.25-.45l.3396.09794A5.39265,5.39265,0,0,0,11.179,17.133c1.05046-.532,1.84847.477,2.321-.633h5c.46633,1.09549,1.29426-.02268,2.32565.51163A5.03387,5.03387,0,0,0,21.98,17.44Z"/><path fill="#d9d8da" d="M9.82,17.73l.89-.21.31-.08a4.67149,4.67149,0,0,0,1.27-.5,1.69431,1.69431,0,0,0-1.16.09,4.76716,4.76716,0,0,1-1.11.41l-.31.08Z"/><path fill="#ffdaa7" d="M20.71,17.35a5.51069,5.51069,0,0,1-9.42,0,.46917.46917,0,0,1-.05-.38,3.25119,3.25119,0,0,0,.59-.37A5.08388,5.08388,0,0,0,13,15.41a5.707,5.707,0,0,0,.5-.91h5a5.707,5.707,0,0,0,.5.91,5.08388,5.08388,0,0,0,1.17,1.19,3.25119,3.25119,0,0,0,.59.37A.46917.46917,0,0,1,20.71,17.35Z"/><path fill="#fdc475" d="M12.24,16.97a6.61719,6.61719,0,0,0,.59-.37A5.08388,5.08388,0,0,0,14,15.41a5.707,5.707,0,0,0,.5-.91h-1a5.707,5.707,0,0,1-.5.91,5.08388,5.08388,0,0,1-1.17,1.19,3.25119,3.25119,0,0,1-.59.37.85323.85323,0,0,0,.05.38Z"/><circle cx="16" cy="23.5" r=".5" fill="#1f53a4"/><circle cx="16" cy="25.5" r=".5" fill="#1f53a4"/><circle cx="16" cy="27.5" r=".5" fill="#1f53a4"/><circle cx="16" cy="29.5" r=".5" fill="#1f53a4"/><path fill="#1f53a4" d="M26 25.5v6H25v-6a.5.5 0 0 1 1 0zM7 25.5v6H6v-6a.5.5 0 0 1 1 0z"/><path fill="#ffdaa7" d="M21.39823 10.5H19.93342v-3H22.0649a1 1 0 0 1 .832 1.5547l-.66667 1A1 1 0 0 1 21.39823 10.5zM10.60177 10.5h1.46481v-3H9.9351a1 1 0 0 0-.83205 1.5547l.66667 1A1 1 0 0 0 10.60177 10.5z"/><path fill="#e0e0e2" d="M10.5,6.57651V5.99958a5.5,5.5,0,0,1,5.5-5.5h0a5.5,5.5,0,0,1,5.5,5.5v.57693Z"/><path fill="#d9d8da" d="M16.5.52478c-.16492-.01489-.33124-.02521-.5-.02521a5.5,5.5,0,0,0-5.5,5.5v.57691h1V5.99957A5.4985,5.4985,0,0,1,16.5.52478Z"/><path fill="#ffdaa7" d="M18.26783,14.98811l-1.15845.77228a2,2,0,0,1-2.21876,0l-1.15845-.77228a6,6,0,0,1-2.61156-4.14382L10.5,6.5a30.67639,30.67639,0,0,1,11,0l-.62061,4.34429A6,6,0,0,1,18.26783,14.98811Z"/><polygon fill="#e0e0e2" points="10.511 6.576 10.5 6.5 10.5 6.576 10.511 6.576"/><polygon fill="#e0e0e2" points="21.5 6.576 21.5 6.5 21.489 6.576 21.5 6.576"/><path fill="#e0e0e2" d="M16,.49957a5.5,5.5,0,0,0-5.5,5.5V6.5a30.67593,30.67593,0,0,1,11,0V5.99957A5.5,5.5,0,0,0,16,.49957Z"/><path fill="#fdc475" d="M10.52539,6.4964c-.004.04419-.00384.08954-.00677.134l.18034.46522a30.501,30.501,0,0,1,10.72,0l.06245-.46522c-.00293-.04449-.00274-.08984-.00677-.134A30.6399,30.6399,0,0,0,10.52539,6.4964Z"/><path fill="#fdc475" d="M15.89063,15.76038l-1.15845-.77228a6,6,0,0,1-2.61157-4.1438L11.5,6.5V6.354s1.36731-.21819-1,.146l.62061,4.3443a6,6,0,0,0,2.61157,4.1438l1.15845.77228A1.99264,1.99264,0,0,0,16.5,16.02313,1.97964,1.97964,0,0,1,15.89063,15.76038Z"/><path fill="#fdc475" d="M19,15.41a5.80023,5.80023,0,0,1-.73.58l-1.16.77a1.99423,1.99423,0,0,1-2.22,0l-1.16-.77a5.80023,5.80023,0,0,1-.73-.58,5.707,5.707,0,0,0,.5-.91h5A5.707,5.707,0,0,0,19,15.41Z"/><path fill="#58565d" d="M21,9.45924l-2.7498,3.24545a.29148.29148,0,0,1-.46491-.02675l-.55307-.82961A.78224.78224,0,0,0,16.58136,11.5H15.41864a.78222.78222,0,0,0-.65084.34832l-.55588.83381a.29148.29148,0,0,1-.46253.02951l-2.82664-3.2524L10.92,9.46l.2,1.38a6.01311,6.01311,0,0,0,2.61,4.15l1.16.77a1.99408,1.99408,0,0,0,2.22,0l1.16-.77a6.01311,6.01311,0,0,0,2.61-4.15l.2-1.37Z"/><path fill="#3c3b41" d="M15.89,15.76l-1.16-.77a6.01318,6.01318,0,0,1-2.61-4.15l-.00055-.00379-1.19672-1.377L10.92,9.46l.2,1.38a6.01318,6.01318,0,0,0,2.61,4.15l1.16.77a1.98735,1.98735,0,0,0,1.61.2641A1.96524,1.96524,0,0,1,15.89,15.76Z"/></svg>