<svg xmlns="http://www.w3.org/2000/svg" data-name="Layer 1" viewBox="0 0 32 32"><polyline fill="#fdc475" points="13.666 6.818 12.149 9.725 15.385 10.916 16.365 8.935"/><path fill="#ffdaa7" d="M15.13415,9.26072l-.47594-.25406a3.22355,3.22355,0,0,1-1.32721-4.387l.964-1.77322a3.28347,3.28347,0,0,1,4.42725-1.31514l.47594.25406a3.22355,3.22355,0,0,1,1.32721,4.387l-.964,1.77321A3.28349,3.28349,0,0,1,15.13415,9.26072Z"/><path fill="#ffdaa7" d="M15.69092,9.48083l-.476-.25408a3.22356,3.22356,0,0,1-1.32721-4.387l.96405-1.77325A3.27862,3.27862,0,0,1,18.626,1.4917,3.27753,3.27753,0,0,0,14.295,2.84644L13.331,4.61969a3.22356,3.22356,0,0,0,1.32721,4.387l.476.254a3.28443,3.28443,0,0,0,.65277.25971C15.75543,9.50482,15.72211,9.4975,15.69092,9.48083Z"/><path fill="#e0e0e2" d="M14.42316,2.60732q1.39868.8103,2.82382,1.66844,1.65069.99451,3.22833,1.98886A3.55332,3.55332,0,0,0,19.14249,1.322,3.45231,3.45231,0,0,0,17.46223.84686,3.99032,3.99032,0,0,0,14.42316,2.60732Z"/><path fill="#d9d8da" d="M17.99756 1.16913a3.33322 3.33322 0 0 1 1.39026.32666c-.08356-.05689-.15509-.12146-.2453-.17383a3.45229 3.45229 0 0 0-1.6803-.4751A3.99045 3.99045 0 0 0 14.42316 2.6073c.17773.103.35992.21393.53833.318A3.984 3.984 0 0 1 17.99756 1.16913zM17.78229 4.598c-.1-.06024-.19751-.11578-.2973-.17566C18.501 5.0365 19.501 5.651 20.47534 6.26459l.0025-.006C19.593 5.70526 18.70111 5.15155 17.78229 4.598z"/><path fill="#58565d" d="M14.42315,2.60732l2.55211,1.50446c-.55.29-1.19809.68808-1.8281,1.10806a18.44978,18.44978,0,0,0-2.03,1.58l-.1.02a3.161,3.161,0,0,1,.31-2.2l.97-1.77Z"/><path fill="#3c3b41" d="M13.87036,4.94208l.97-1.77.126-.24249,2.00714,1.18322.00177-.001L14.42316,2.6073l-.126.24255-.97,1.77a3.161,3.161,0,0,0-.31,2.2l.1-.02c.11474-.10267.25244-.21033.37549-.31513A3.15161,3.15161,0,0,1,13.87036,4.94208Z"/><path fill="#e0e0e2" d="M20.49,31.5H5.92V27.64H7.39l2.16-1.02,5.4,1.02,2.92-.66s.43.29.44.29l3.77.79c.04.05.08.09.12.15v.01A2.07283,2.07283,0,0,1,20.49,31.5Z"/><path fill="#d9d8da" d="M22.2,28.21v.01c-.02.46-.34.98-1.67,1.04-4.78.22-4.53.42-5.53.33-2.3-.2-2.69-.92-5.31-1.01a13.47982,13.47982,0,0,0-2.00935.0321c-.06-.34-.24059-.64209-.29064-.972h0l2.16-1.02,5.4,1.02,2.92-.66s.43.29.44.29l3.77.79C22.12,28.11,22.16,28.15,22.2,28.21Z"/><path fill="#e0e0e2" d="M20.53,28.26c-4.78.22-4.53.42-5.53.33-2.3-.2-2.69-.92-5.31-1.01a16.99517,16.99517,0,0,0-2.3.06005c-.15-.84-.25-1.64-.4-2.48a21.16974,21.16974,0,0,1-.28-2.51,17.15886,17.15886,0,0,1,.04-2.38,15.5512,15.5512,0,0,1,.38-2.25,16.29758,16.29758,0,0,1,.69-2.15,18.40126,18.40126,0,0,1,1.01-2.1A27.82641,27.82641,0,0,1,10.9,10.6a2.69018,2.69018,0,0,1,.84-.77,1.21252,1.21252,0,0,1,.35-.12,2.41074,2.41074,0,0,1,.84.04,5.37736,5.37736,0,0,1,1.18.3,5.28,5.28,0,0,1,1.13.59c1.05.72,1.34,2.1,1.58,3.27.01.04.01.08.02.12.06.28.1.56.14.85.03.24.05.47.07.71a6.96689,6.96689,0,0,1-.8,3.11c-.05.12-.09.24-.13.36-.5,1.49.66,2.9,1.79,3.75,1.51,1.14,3.31,1.96,4.14,3.76C22.19,26.88,22.67,28.16,20.53,28.26Z"/><path fill="#d9d8da" d="M7.99,25.16a21.16974,21.16974,0,0,1-.28-2.51,17.15886,17.15886,0,0,1,.04-2.38,15.5512,15.5512,0,0,1,.38-2.25,16.29758,16.29758,0,0,1,.69-2.15,18.40126,18.40126,0,0,1,1.01-2.1A27.82641,27.82641,0,0,1,11.9,10.6a2.69018,2.69018,0,0,1,.84-.77,1.29266,1.29266,0,0,1,.21759-.07459L12.93,9.75a2.41074,2.41074,0,0,0-.84-.04,1.21252,1.21252,0,0,0-.35.12,2.69018,2.69018,0,0,0-.84.77,27.82641,27.82641,0,0,0-2.07,3.17,18.40126,18.40126,0,0,0-1.01,2.1,16.29758,16.29758,0,0,0-.69,2.15,15.5512,15.5512,0,0,0-.38,2.25,17.15886,17.15886,0,0,0-.04,2.38,21.16974,21.16974,0,0,0,.28,2.51c.15.84.25,1.64.4,2.48.25672-.03021.5951-.05273.98969-.0639C8.236,26.7597,8.13617,25.97833,7.99,25.16Z"/><path fill="#ffdaa7" d="M5.91654,31.5V27.64017a2.64593,2.64593,0,0,0-1.416.39581,4.07906,4.07906,0,0,0-1.16644,1.54441A6.11617,6.11617,0,0,1,1.36308,31.5Z"/><path fill="#d9d8da" d="M17.05,15.59a6.96689,6.96689,0,0,1-.8,3.11l-3.93141-1.92563a.50683.50683,0,0,1-.22048-.70062L13.7,13.18l3.28,1.7C17.01,15.12,17.03,15.35,17.05,15.59Z"/><path fill="#e0e0e2" d="M13.69585,12.17986l4.66758,2.40719,2.82128-3.7349a.149.149,0,0,1,.13254-.05856l2.44828.22568a.149.149,0,0,1,.11915.21582l-2.874,5.6571A2.87669,2.87669,0,0,1,17.203,18.1649L11.8416,15.53783"/><path fill="#ffdaa7" d="M21.445,10.80536a10.66391,10.66391,0,0,0,.70831-1.99382c.18882-.76527,1.27926-1.83532,1.77062-1.74368a10.87464,10.87464,0,0,1-.25373,3.94263l-2.079-.19165"/></svg>