<svg xmlns="http://www.w3.org/2000/svg" data-name="Layer 1" viewBox="0 0 32 32"><path fill="#b28966" d="M29.86 22.67v5.45a1.00869 1.00869 0 0 1-1.27.97L18.06 26.17l-2.04-.57zM16 25.6l-2.04.57L3.43 29.09a1.00872 1.00872 0 0 1-1.27-.97V22.66z"/><polygon fill="#8b6847" points="2.16 22.66 16 25.6 13.96 26.17 2.16 23.66 2.16 22.66"/><polygon fill="#8b6847" points="29.86 22.67 29.86 23.67 18.06 26.17 16.02 25.6 29.86 22.67"/><path fill="#bc9a7b" d="M.52,21.50129V6.43639a1,1,0,0,1,1.2114-.9774L16.02,8.54952,30.30862,5.459a1,1,0,0,1,1.2114.9774v15.077a1,1,0,0,1-.793.97835L16.02,25.60281,1.31229,22.47948A1,1,0,0,1,.52,21.50129Z"/><path fill="#b28966" d="M27.73337,20.79405,16,23.61006l-11.73337-2.816A1,1,0,0,1,3.5,19.82167V4.87846a1,1,0,0,1,1.23337-.97239L16,6.61006l11.26663-2.704A1,1,0,0,1,28.5,4.87846V19.82167A1,1,0,0,1,27.73337,20.79405Z"/><path fill="#e0e0e2" d="M26.73337,19.79405,16,22.61006l-11.73337-4.816C3.817,17.68614,3.5,19.28405,3.5,18.82167V3.87846a1,1,0,0,1,1.23337-.97239L16,5.61006l11.26663-2.704A1,1,0,0,1,28.5,3.87846l-1,14.94321A1,1,0,0,1,26.73337,19.79405Z"/><path fill="#d9d8da" d="M26.73337,19.79405,16,22.61006v-17l11.26663-2.704A1,1,0,0,1,28.5,3.87846v12.7316l-1,2.21161A1,1,0,0,1,26.73337,19.79405Z"/><path fill="#afaeb3" d="M4.26663,19.79405,16,22.61006v-.63481a3,3,0,0,0-2.29988-2.91716L3.5,16.61006v2.21161A1,1,0,0,0,4.26663,19.79405Z"/><path fill="#afaeb3" d="M16 22.61006l11.73337-2.816A1 1 0 0 0 28.5 18.82167V16.61006l-10.20012 2.448A3 3 0 0 0 16 21.97525zM18.80371 13.86816a.5001.5001 0 0 1-.12109-.98535l6.94629-1.73633a.50023.50023 0 0 1 .24218.97071L18.9248 13.85352A.51973.51973 0 0 1 18.80371 13.86816zM18.80371 10.86816a.5001.5001 0 0 1-.12109-.98535l6.94629-1.73633a.50023.50023 0 0 1 .24218.97071L18.9248 10.85352A.51973.51973 0 0 1 18.80371 10.86816zM18.80371 7.86816a.5001.5001 0 0 1-.12109-.98535l6.94629-1.73633a.50023.50023 0 0 1 .24218.97071L18.9248 7.85352A.51973.51973 0 0 1 18.80371 7.86816zM18.80371 16.86816a.5001.5001 0 0 1-.12109-.98535l6.94629-1.73633a.50023.50023 0 0 1 .24218.97071L18.9248 16.85352A.51973.51973 0 0 1 18.80371 16.86816zM12.75049 13.86816a.52069.52069 0 0 1-.12158-.01464l-6.9458-1.73633a.50023.50023 0 0 1 .24218-.97071l6.9458 1.73633a.50016.50016 0 0 1-.1206.98535zM12.75049 10.86816a.52069.52069 0 0 1-.12158-.01464L5.68311 9.11719a.50023.50023 0 0 1 .24218-.97071l6.9458 1.73633a.50016.50016 0 0 1-.1206.98535zM12.75049 7.86816a.52069.52069 0 0 1-.12158-.01464L5.68311 6.11719a.50023.50023 0 0 1 .24218-.97071l6.9458 1.73633a.50016.50016 0 0 1-.1206.98535zM12.75049 16.86816a.52069.52069 0 0 1-.12158-.01464l-6.9458-1.73633a.50023.50023 0 0 1 .24218-.97071l6.9458 1.73633a.50016.50016 0 0 1-.1206.98535z"/></svg>