<svg xmlns="http://www.w3.org/2000/svg" data-name="Layer 1" viewBox="0 0 32 32"><path fill="#37b678" d="M5.5,25.5V2.5a2,2,0,0,1,2-2h19v23"/><path fill="#00a653" d="M6.5,2.5a2,2,0,0,1,2-2h-1a2,2,0,0,0-2,2v23l1-.09521Z"/><path fill="#e0e0e2" d="M7.5,23.5h19a0,0,0,0,1,0,0v5a0,0,0,0,1,0,0H7.5a2,2,0,0,1-2-2v-1A2,2,0,0,1,7.5,23.5Z"/><path fill="#d9d8da" d="M6.5,26.5v-1a2,2,0,0,1,2-2h-1a2,2,0,0,0-2,2v1a2,2,0,0,0,2,2h1A2,2,0,0,1,6.5,26.5Z"/><polygon fill="#e5303e" points="11.5 31.5 9.5 30.5 7.5 31.5 7.5 26.5 11.5 26.5 11.5 31.5"/><polygon fill="#b72732" points="8.5 26.5 7.5 26.5 7.5 31.5 8.5 31 8.5 26.5"/><path fill="#fdd402" d="M7.5,4.5v14a2,2,0,0,1,2,2,1.97948,1.97948,0,0,1-.2774,1H21.7774a1.97948,1.97948,0,0,1-.2774-1,2,2,0,0,1,2-2,1.97948,1.97948,0,0,1,1,.2774V4.2226a1.97948,1.97948,0,0,1-1,.2774,2,2,0,0,1-2-2H9.5A2,2,0,0,1,7.5,4.5Z"/><path fill="#fbbf13" d="M8.5,18.5V4.5a2,2,0,0,0,2-2h-1a2,2,0,0,1-2,2v14a2,2,0,0,1,2,2,1.97948,1.97948,0,0,1-.2774,1h1a1.97948,1.97948,0,0,0,.2774-1A2,2,0,0,0,8.5,18.5Z"/><path fill="#fff" d="M12.57642,7.6804a4.92219,4.92219,0,0,1,2.09274-.63486,4.94261,4.94261,0,0,0,4.47294,7.74737A4.96291,4.96291,0,1,1,12.57642,7.6804Z"/><path fill="#e0e0e2" d="M11.75745,14.46887a4.96956,4.96956,0,0,1,1.819-6.78851,4.719,4.719,0,0,1,.9646-.4176c.04412-.07172.08026-.14759.12811-.21723a4.95839,4.95839,0,1,0,.91064,9.87378A4.9533,4.9533,0,0,1,11.75745,14.46887Z"/><polygon fill="#fff" points="18.639 8.797 19.426 7.163 20.184 8.811 21.909 9.091 20.648 10.356 20.927 12.163 19.39 11.297 17.837 12.133 18.148 10.333 16.909 9.043 18.639 8.797"/><polygon fill="#e0e0e2" points="18.699 11.669 18.887 10.577 17.648 9.288 19.378 9.041 19.844 8.073 19.426 7.163 18.639 8.797 16.909 9.043 18.148 10.333 17.837 12.133 18.699 11.669"/></svg>