<svg xmlns="http://www.w3.org/2000/svg" data-name="Layer 1" viewBox="0 0 32 32"><path fill="#fdc475" d="M11.61076,13.55072a5.41313,5.41313,0,0,1-4.37906-.64516,6.03392,6.03392,0,0,1-2.03465-3.611,6.43569,6.43569,0,0,0-.41513-2.05822C4.476,6.736,3.74042,6.78165,3.22913,6.53856a2.13627,2.13627,0,0,0-.53572-.19267,1.72878,1.72878,0,0,0-.4637-.01783c-.52993.048-.6223.28513-.90424.26607a1.09878,1.09878,0,0,1-.82283-1.018A1.30053,1.30053,0,0,1,.92409,4.598a2.61934,2.61934,0,0,1,.9803-.51508c.63661-.24847.6338-.22279.96643-.33455.93979-.31569.93333-.94865,1.65182-1.013.4014-.03593.46528.15613.89689.06606.438-.09143.54559-.32543.89372-.29944a.80522.80522,0,0,1,.65156.39925c.15726.33241-.16139.5858-.22076,1.07031-.07691.628.37787.85945.764,1.75413a6.83878,6.83878,0,0,1,.43956,2.12454c.2368,1.28815,1.15727,2.46842,2.59688,1.70766,1.2431-.65693,1.64192-2.29379,2.81178-3.07521,1.18521-.79166,2.58559-.69289,3.62621-1.76124.96252-.98819,2.02127-1.901,3.46242-1.21376,1.26541.60339,1.6069,2.09854,2.72146,2.8684a15.85957,15.85957,0,0,1,1.7858,1.07447A14.86259,14.86259,0,0,1,26.36945,9.18c.7447.9172.54982,1.16771,1.11821,2.13171a9.51516,9.51516,0,0,0,1.88584,2.41254C30.5748,14.79108,31.48885,14.90556,31.5,15.536c.00751.42473-1.65183,1.10153-2.9239.13257a12.25,12.25,0,0,1-2.81676-3.05605,16.8261,16.8261,0,0,0,1.11326,4.18,22.35254,22.35254,0,0,0,2.29278,3.90669,1.98087,1.98087,0,0,1,.36691,1.1541V29.5H26.70255l.94323-1.87765.15563-1.786q-1.07841-3.59172-2.15685-7.1835.19613,3.09977.39227,6.19952-.25833,1.34837-.58657,2.76994-.2231.96115-.4621,1.87766h-3.4734L22.952,27.62234A14.04117,14.04117,0,0,0,23.76248,24.32a17.29715,17.29715,0,0,0-.06125-3.97482,27.45654,27.45654,0,0,0-.51371-3.26967,6.20368,6.20368,0,0,1-.30809-2.03763c.02381-1.19555.40274-1.99928.17015-2.12076-.22649-.1183-.56342.59928-1.54825,1.12906a5.73151,5.73151,0,0,1-2.2764.56636c-.536.05336-1.26518.18778-2.15141.25609h0l1.55788,7.727a2.00005,2.00005,0,0,1,.03442.537L18.21342,29.5H15.38371L16.387,27.89478a1,1,0,0,0,.14869-.61159l-.68281-8.34387-1.41243-3.51221-.685,4.23927a2.99965,2.99965,0,0,0-.03278.66228l.21742,3.5433a3.00006,3.00006,0,0,1-.08673.92243l-.26381,1.03839a3.00039,3.00039,0,0,0-.09236.73869V29.5H10.66753l.83682-1.66582a1,1,0,0,0,.10641-.44889Z"/><path fill="#faa827" d="M1.50262 5.57611A1.30068 1.30068 0 0 1 1.92407 4.598a2.61973 2.61973 0 0 1 .98035-.51507c.6366-.24848.63379-.22278.96643-.33454.778-.26135.91211-.73559 1.34137-.92926-.2536-.00043-.36639-.11261-.68958-.08374-.7185.06433-.712.69733-1.65179 1.013-.33264.11176-.32983.08606-.96643.33454A2.61973 2.61973 0 0 0 .92407 4.598a1.30068 1.30068 0 0 0-.42145.97815 1.0988 1.0988 0 0 0 .82288 1.018c.21509.01452.32294-.119.59589-.2049A1.2406 1.2406 0 0 1 1.50262 5.57611zM6.41956 2.80145a1.3234 1.3234 0 0 0 .34552-.12481A.89792.89792 0 0 0 6.31323 2.502c-.28631-.02136-.41955.12989-.69812.23627C5.92786 2.74011 6.028 2.88312 6.41956 2.80145zM11.54449 9.55786c1.24311-.65692 1.642-2.29376 2.81183-3.07519 1.18518-.79163 2.58557-.69288 3.62616-1.76123a4.60134 4.60134 0 0 1 1.97357-1.38727c-1.19732-.29511-2.12353.51452-2.97357 1.38727-1.04059 1.06835-2.441.9696-3.62616 1.76123-1.16986.78143-1.56872 2.41827-2.81183 3.07519a2.105 2.105 0 0 1-.36517.14026A1.57691 1.57691 0 0 0 11.54449 9.55786zM8.23169 12.90558a6.03392 6.03392 0 0 1-2.03461-3.611 6.43655 6.43655 0 0 0-.41516-2.05817C5.476 6.736 4.74042 6.78162 4.22913 6.53857a2.13507 2.13507 0 0 0-.53571-.19268 1.72855 1.72855 0 0 0-.46368-.01783 1.40056 1.40056 0 0 0-.343.07209 2.87029 2.87029 0 0 1 .34241.13842c.51129.24305 1.24688.19745 1.55279.69782a6.43655 6.43655 0 0 1 .41516 2.05817 6.03392 6.03392 0 0 0 2.03461 3.611 4.81582 4.81582 0 0 0 3.32361.817A4.35863 4.35863 0 0 1 8.23169 12.90558zM29.57605 15.66858a12.25 12.25 0 0 1-2.81671-3.056c.06531.49371.16943 1.06207.31323 1.67114a11.98336 11.98336 0 0 0 1.50348 1.38489 2.47379 2.47379 0 0 0 1.98529.44482A2.39545 2.39545 0 0 1 29.57605 15.66858zM28.80139 25.83636q-1.0784-3.5917-2.1568-7.18347.13349 2.10993.267 4.22.44485 1.48179.88977 2.9635l-.15558 1.78595L26.70258 29.5h1l.94323-1.87769zM24.76251 24.32a17.29606 17.29606 0 0 0-.06128-3.97486 27.43826 27.43826 0 0 0-.51373-3.26965 6.20353 6.20353 0 0 1-.308-2.03766c.0238-1.19555.40271-1.99927.1701-2.12073-.17859-.09332-.43146.33356-1.01129.778a7.84782 7.84782 0 0 0-.15881 1.34277 6.20353 6.20353 0 0 0 .308 2.03766 27.43826 27.43826 0 0 1 .51373 3.26965A17.29606 17.29606 0 0 1 23.76251 24.32a14.04306 14.04306 0 0 1-.81048 3.3023L21.51477 29.5h1L23.952 27.62231A14.04306 14.04306 0 0 0 24.76251 24.32zM17.53571 27.2832l-.6828-8.34387-1.41242-3.51221-.28662 1.77393.699 1.73828.6828 8.34387a.99966.99966 0 0 1-.14869.61158L15.38373 29.5h1L17.387 27.89478A.99966.99966 0 0 0 17.53571 27.2832zM12.61078 27.38525V13.55072a7.03943 7.03943 0 0 1-1 .16577V27.38525a.9996.9996 0 0 1-.10645.44892L10.66754 29.5h1l.83679-1.66583A.9996.9996 0 0 0 12.61078 27.38525z"/></svg>