<svg xmlns="http://www.w3.org/2000/svg" data-name="Layer 1" viewBox="0 0 32 32"><path fill="#37b678" d="M27.25306,20.24693l3.53983-3.53983a1,1,0,0,0,0-1.41422l-3.53983-3.53983a1,1,0,0,1-.29289-.70711V6.03982a1,1,0,0,0-1-1H20.95409a1,1,0,0,1-.70711-.29289L16.70711,1.20705a1,1,0,0,0-1.41422,0L11.753,4.74693a1,1,0,0,1-.70711.29289H6.03983a1,1,0,0,0-1,1v5.00612a1,1,0,0,1-.29289.70711L1.20711,15.29288a1,1,0,0,0,0,1.41422l3.53983,3.53983a1,1,0,0,1,.29289.70711v5.00612a1,1,0,0,0,1,1H11.046a1,1,0,0,1,.70711.29289l3.53983,3.53983a1,1,0,0,0,1.41422,0l3.53983-3.53983a1,1,0,0,1,.70711-.29289h5.00612a1,1,0,0,0,1-1V20.954A1,1,0,0,1,27.25306,20.24693Z"/><path fill="#329e65" d="M12.753 4.74689L16.29291 1.207A.96261.96261 0 0 1 16.5 1.06952a.986.986 0 0 0-1.20709.13751L11.753 4.74689a.99983.99983 0 0 1-.70709.2929h1A.99983.99983 0 0 0 12.753 4.74689zM16.29291 30.79285l-3.53986-3.5398a.99984.99984 0 0 0-.70709-.29291h-1a.99984.99984 0 0 1 .70709.29291l3.53986 3.5398A.98586.98586 0 0 0 16.5 30.93036.96261.96261 0 0 1 16.29291 30.79285zM6.03986 25.96014V20.954a1.00023 1.00023 0 0 0-.29291-.70715l-3.53986-3.5398a1.00008 1.00008 0 0 1 0-1.41424L5.747 11.75305a1.00023 1.00023 0 0 0 .29291-.70715V6.03979a1 1 0 0 1 1-1h-1a1 1 0 0 0-1 1V11.0459a1.00023 1.00023 0 0 1-.29291.70715l-3.53986 3.5398a1.00008 1.00008 0 0 0 0 1.41424L4.747 20.24689a1.00023 1.00023 0 0 1 .29291.70715v5.0061a1 1 0 0 0 1 1h1A1 1 0 0 1 6.03986 25.96014z"/><path fill="#e0e0e2" d="M13.874,25.13184A3.97182,3.97182,0,0,0,11.0459,23.96H8.04V20.9541A3.971,3.971,0,0,0,6.86816,18.126L4.74268,16l2.12548-2.126A3.97182,3.97182,0,0,0,8.04,11.0459V8.04H11.0459A3.97182,3.97182,0,0,0,13.874,6.86816L16,4.74268l2.126,2.12548A3.971,3.971,0,0,0,20.9541,8.04H23.96V11.0459A3.97182,3.97182,0,0,0,25.13184,13.874L27.25781,16l-2.126,2.126A3.971,3.971,0,0,0,23.96,20.9541V23.96H20.9541A3.971,3.971,0,0,0,18.126,25.13184L16,27.25781Z"/><path fill="#d9d8da" d="M14.874 6.86816L16.5 5.24255 16 4.74268 13.874 6.86816A3.97182 3.97182 0 0 1 11.0459 8.04h1A3.97182 3.97182 0 0 0 14.874 6.86816zM7.86816 18.126L5.74268 16l2.12548-2.126A3.97182 3.97182 0 0 0 9.04 11.0459V8.04h-1V11.0459A3.97182 3.97182 0 0 1 6.86816 13.874L4.74268 16l2.12548 2.126A3.971 3.971 0 0 1 8.04 20.9541V23.96h1V20.9541A3.971 3.971 0 0 0 7.86816 18.126zM14.874 25.13184A3.97182 3.97182 0 0 0 12.0459 23.96h-1A3.97182 3.97182 0 0 1 13.874 25.13184L16 27.25781l.5-.5z"/><path fill="#37b678" d="M18.01463,12.965l.87244-1.7279a.20052.20052,0,0,1,.35961.00327l.84081,1.74351a.20053.20053,0,0,0,.15.11107l1.91294.29578a.20052.20052,0,0,1,.108.343l-1.39836,1.33844a.20053.20053,0,0,0-.05928.177l.30982,1.91071a.20051.20051,0,0,1-.29285.20872l-1.705-.91631a.20051.20051,0,0,0-.18661-.0017l-1.72145.8851a.20052.20052,0,0,1-.289-.214l.34458-1.90475a.20053.20053,0,0,0-.05605-.178l-1.37374-1.36368a.20052.20052,0,0,1,.11425-.341l1.918-.26089A.20047.20047,0,0,0,18.01463,12.965Z"/><path fill="#329e65" d="M17.98926,15.48584a.20042.20042,0,0,0-.056-.178l-1.37372-1.36371a.2005.2005,0,0,1,.1142-.341l1.918-.26086a.20076.20076,0,0,0,.152-.10834l.749-1.48346-.246-.51019a.20053.20053,0,0,0-.35962-.00324L18.01465,12.965a.20069.20069,0,0,1-.152.10827l-1.918.26087a.20051.20051,0,0,0-.1142.341l1.37372,1.36371a.20044.20044,0,0,1,.056.178l-.34454,1.90478a.20048.20048,0,0,0,.289.214l.49616-.25513Z"/><path fill="#37b678" d="M12.207,10.38034A6.85605,6.85605,0,0,1,14.34533,9.159a.19974.19974,0,0,1,.21993.3145,7.05529,7.05529,0,0,0,6.56266,11.366.19948.19948,0,0,1,.16309.34682A6.87131,6.87131,0,0,1,18.57159,22.614,7.05607,7.05607,0,0,1,12.207,10.38034Z"/><path fill="#329e65" d="M21.29193 20.9a.18669.18669 0 0 0-.164-.06054c-.17761.02624-.35565.02606-.53369.03863C20.82648 20.89471 21.058 20.90643 21.29193 20.9zM12.88751 20.94836A7.09334 7.09334 0 0 1 13.207 10.38031a6.80653 6.80653 0 0 1 1.33441-.8717c.00879-.01123.015-.024.02387-.03516a.1997.1997 0 0 0-.21991-.31445A6.85619 6.85619 0 0 0 12.207 10.38031a7.03809 7.03809 0 0 0 5.02734 12.44153A7.069 7.069 0 0 1 12.88751 20.94836z"/></svg>