<svg xmlns="http://www.w3.org/2000/svg" data-name="Layer 1" viewBox="0 0 32 32"><path fill="#e5303e" d="M25.56888,31.5H19.43112a1,1,0,0,1-.99746-.92875l-.71937-10.07113L18.5,18.5h8l.78571,2.00012-.71937,10.07113A1,1,0,0,1,25.56888,31.5Z"/><path fill="#b72732" d="M19.43365,30.57123l-.71936-10.07111L19.5,18.5h-1l-.78571,2.00012.71936,10.07111a1,1,0,0,0,.99744.92877h1A1,1,0,0,1,19.43365,30.57123Z"/><path fill="#e0e0e2" d="M27.4699,17.918,27.284,20.5H17.716l-.18589-2.582a.39.39,0,0,1,.389-.418h9.16182A.39.39,0,0,1,27.4699,17.918Z"/><path fill="#afaeb3" d="M18.91907,17.5h-1a.39.39,0,0,0-.389.418L17.716,20.5h1l-.18591-2.582A.39.39,0,0,1,18.91907,17.5Z"/><path fill="#e5303e" d="M12.14593,31.5H6.85407a2,2,0,0,1-1.857-1.25722l-.35406-.88516a1.99991,1.99991,0,0,1-.143-.74278l1-7.28875-1-7.51558a2.00011,2.00011,0,0,1,.09415-.60641L7.04545,5.5,9,3.5h1l1.95452,1.99993,2.45133,7.70417a2.00011,2.00011,0,0,1,.09415.60641l-1,8.84846,1,5.95587a1.99991,1.99991,0,0,1-.14305.74278l-.35406.88516A2,2,0,0,1,12.14593,31.5Z"/><path fill="#b72732" d="M5.99713,30.24274l-.35406-.88514A1.999,1.999,0,0,1,5.5,28.61481l1-7.28876-1-7.51556a1.99866,1.99866,0,0,1,.09418-.60639L8.04547,5.5,10,3.5H9l-1.95453,2L4.59418,13.2041A1.99866,1.99866,0,0,0,4.5,13.81049l1,7.51556-1,7.28876a1.999,1.999,0,0,0,.14307.74279l.35406.88514A2,2,0,0,0,6.85406,31.5h1A2,2,0,0,1,5.99713,30.24274Z"/><polygon fill="#e0e0e2" points="7.045 5.5 8 2.5 11 2.5 11.955 5.5 7.045 5.5"/><polygon fill="#d9d8da" points="8 2.5 7.045 5.5 8.045 5.5 9 2.5 8 2.5"/><rect width="4" height="2" x="7.5" y=".5" fill="#8b8891" rx=".394"/><path fill="#58565d" d="M8.5,2.106V.894A.394.394,0,0,1,8.894.5h-1A.394.394,0,0,0,7.5.894V2.106a.394.394,0,0,0,.394.394h1A.394.394,0,0,1,8.5,2.106Z"/><rect width="10" height="15" x="4.5" y="13.5" fill="#8b8891"/><rect width="1" height="15" x="4.5" y="13.5" fill="#58565d"/></svg>