<svg xmlns="http://www.w3.org/2000/svg" data-name="Layer 1" viewBox="0 0 32 32"><rect width="4.47" height="10.577" x="16.765" y="12.681" fill="#afaeb3"/><rect width="1" height="10.578" x="16.765" y="12.681" fill="#8b8891"/><path fill="#00a653" d="M19 9.66885a.49972.49972 0 0 1-.5-.5V8.53066a.5.5 0 1 1 1 0v.63819A.49972.49972 0 0 1 19 9.66885zM23.78906 14.63834a.49972.49972 0 0 1-.5-.5v-.63818a.5.5 0 0 1 1 0v.63818A.49971.49971 0 0 1 23.78906 14.63834zM14.21094 14.63834a.49971.49971 0 0 1-.5-.5v-.63818a.5.5 0 0 1 1 0v.63818A.49972.49972 0 0 1 14.21094 14.63834z"/><rect width="1.915" height="13.77" x="26.343" y="9.488" fill="#afaeb3"/><rect width="1" height="13.77" x="26.343" y="9.488" fill="#8b8891"/><rect width="1.915" height="13.77" x="9.742" y="9.488" fill="#afaeb3"/><rect width="1" height="13.77" x="9.742" y="9.488" fill="#8b8891"/><path fill="#d9d8da" d="M21.23475,23.25824h-4.4695V17.92042c.35218-1.02353.912-2.58474,2.23475-2.96267h0a3.08121,3.08121,0,0,1,2.23475,2.96267Z"/><path fill="#8b8891" d="M19.5,15.15118a3.07822,3.07822,0,0,0-.5-.19342,3.0812,3.0812,0,0,0-2.23474,2.96265v5.33783h1V17.92041A3.08022,3.08022,0,0,1,19.5,15.15118Z"/><rect width="5.108" height="5.746" x="21.235" y="17.512" fill="#afaeb3"/><rect width="1" height="5.747" x="21.235" y="17.512" fill="#8b8891"/><rect width="5.108" height="5.746" x="11.657" y="17.512" fill="#afaeb3"/><rect width="1" height="5.747" x="11.657" y="17.512" fill="#8b8891"/><path fill="#37b678" d="M21.23475,12.68075h-4.4695l-.37827-1.5131A1.277,1.277,0,0,1,17.10721,9.691L19,8.84975l1.89279.84124a1.277,1.277,0,0,1,.72023,1.47666Z"/><path fill="#00a653" d="M18.10724,9.691,19.5,9.072,19,8.84973,17.10724,9.691a1.277,1.277,0,0,0-.72028,1.47668l.3783,1.51307h1l-.3783-1.51307A1.277,1.277,0,0,1,18.10724,9.691Z"/><path fill="#37b678" d="M26.34274,17.51175h-5.108a4.13244,4.13244,0,0,1,2.28436-3.69617l.26963-.13482.26964.13482a4.13244,4.13244,0,0,1,2.28436,3.69617Z"/><path fill="#00a653" d="M24.28876,13.95172c-.07715-.045-.14978-.09589-.23041-.13617l-.26959-.13482-.26966.13482a4.13243,4.13243,0,0,0-2.28436,3.69617h1A4.12544,4.12544,0,0,1,24.28876,13.95172Z"/><path fill="#37b678" d="M16.76525,17.51175h-5.108a4.13244,4.13244,0,0,1,2.28436-3.69617l.26964-.13482.26963.13482a4.13244,4.13244,0,0,1,2.28436,3.69617Z"/><path fill="#00a653" d="M14.7113,13.95172c-.07714-.045-.14978-.09589-.2304-.13617l-.26966-.13482-.26959.13482a4.13243,4.13243,0,0,0-2.28436,3.69617h1A4.12546,4.12546,0,0,1,14.7113,13.95172Z"/><path fill="#d9d8da" d="M24.63587,23.25824H22.94162V20.664a1.53248,1.53248,0,0,1,.84712-1.37068h0a1.53248,1.53248,0,0,1,.84712,1.37068Z"/><path fill="#8b8891" d="M24.28876,19.71521a1.5129,1.5129,0,0,0-.5-.42194,1.53247,1.53247,0,0,0-.84711,1.37067v2.5943h1v-2.5943A1.51859,1.51859,0,0,1,24.28876,19.71521Z"/><path fill="#d9d8da" d="M15.05838,23.25824H13.36413V20.664a1.53248,1.53248,0,0,1,.84712-1.37068h0a1.53248,1.53248,0,0,1,.84712,1.37068Z"/><path fill="#e0e0e2" d="M2.69625,6.78324A15.38593,15.38593,0,0,1,6.125,2.449a.44823.44823,0,0,1,.72135.47052,15.83333,15.83333,0,0,0,23.185,18.16554.44767.44767,0,0,1,.63008.58543,15.4205,15.4205,0,0,1-4.46563,5.25055A15.83507,15.83507,0,0,1,2.69625,6.78324Z"/><path fill="#d9d8da" d="M11.88458,29.05292A15.91863,15.91863,0,0,1,3.69623,6.7832,15.33455,15.33455,0,0,1,6.85388,2.70941.444.444,0,0,0,6.12494,2.449,15.388,15.388,0,0,0,2.69623,6.7832a15.91863,15.91863,0,0,0,8.18835,22.26972,15.67619,15.67619,0,0,0,6.19373,1.05A15.62234,15.62234,0,0,1,11.88458,29.05292Z"/><path fill="#00a653" d="M10.69922,7.73276a.49972.49972,0,0,1-.5-.5V6.59408a.5.5,0,0,1,1,0v.63868A.49972.49972,0,0,1,10.69922,7.73276Z"/><path fill="#37b678" d="M11.65726,9.46742H9.74176L9.3341,8.6521A.63849.63849,0,0,1,9.50632,7.868l1.19319-.95455,1.19318.95455a.6385.6385,0,0,1,.17223.78413Z"/><path fill="#00a653" d="M10.50635,7.86794l.69317-.55451-.5-.4-1.19317.95453a.63848.63848,0,0,0-.17224.78412l.40765.81537h1l-.40765-.81537A.63848.63848,0,0,1,10.50635,7.86794Z"/><path fill="#37b678" d="M12.2959,9.96724H9.10352a.5.5,0,0,1,0-1H12.2959a.5.5,0,0,1,0,1Z"/><path fill="#00a653" d="M9.60352 9.46724a.49971.49971 0 0 1 .5-.5h-1a.5.5 0 0 0 0 1h1A.49971.49971 0 0 1 9.60352 9.46724zM27.30078 7.73276a.49972.49972 0 0 1-.5-.5V6.59408a.5.5 0 0 1 1 0v.63868A.49972.49972 0 0 1 27.30078 7.73276z"/><path fill="#37b678" d="M28.25824,9.46742h-1.9155l-.40766-.81532a.6385.6385,0,0,1,.17223-.78413l1.19318-.95455,1.19319.95455a.63849.63849,0,0,1,.17222.78413Z"/><path fill="#00a653" d="M27.1073,7.868l.69318-.55456-.5-.4L26.1073,7.868a.63848.63848,0,0,0-.17224.78412l.40765.81531h1l-.40765-.81531A.63848.63848,0,0,1,27.1073,7.868Z"/><path fill="#37b678" d="M28.89648,9.96724H25.7041a.5.5,0,0,1,0-1h3.19238a.5.5,0,0,1,0,1Z"/><path fill="#00a653" d="M26.2041,9.46722a.49972.49972,0,0,1,.5-.5h-1a.5.5,0,0,0,0,1h1A.49971.49971,0,0,1,26.2041,9.46722Z"/></svg>