<svg xmlns="http://www.w3.org/2000/svg" data-name="Layer 1" viewBox="0 0 32 32"><path fill="#afaeb3" d="M30.08,4.04,27.96,1.92a2.4988,2.4988,0,0,0-3.54,0L22.3,4.04a.51347.51347,0,0,0,0,.71L27.25,9.7a.52394.52394,0,0,0,.36.14.49991.49991,0,0,0,.35-.14l1.81-1.81L30.08,7.58a2.51085,2.51085,0,0,0,0-3.54Zm-.71,2.83-.11.11L27.61,8.64,23.36,4.39l1.77-1.76a.3913.3913,0,0,1,.1-.08,1.473,1.473,0,0,1,2.02.08l2.12,2.12a1.45785,1.45785,0,0,1,.44,1.06A1.47462,1.47462,0,0,1,29.37,6.87Z"/><path fill="#8b8891" d="M29.77,7.89,27.96,9.7a.49991.49991,0,0,1-.35.14.52394.52394,0,0,1-.36-.14L22.3,4.75a.51347.51347,0,0,1,0-.71l2.08-2.08c.29.18005.57.38.85.59a.3913.3913,0,0,0-.1.08L23.36,4.39l4.25,4.25,1.65-1.66A9.1226,9.1226,0,0,1,29.77,7.89Z"/><path fill="#afaeb3" d="M9.7,27.25,4.75,22.3a.51347.51347,0,0,0-.71,0L1.96,24.38l-.04.04a2.49873,2.49873,0,0,0,0,3.54l2.12,2.12a2.51077,2.51077,0,0,0,3.54,0L9.7,27.96A.51339.51339,0,0,0,9.7,27.25ZM6.98,29.26l-.11.11a1.49091,1.49091,0,0,1-2.12,0L2.63,27.25a1.473,1.473,0,0,1-.08-2.02.3913.3913,0,0,1,.08-.1l1.76-1.77,4.25,4.25Z"/><path fill="#8b8891" d="M9.7,27.96,7.89,29.77A9.12339,9.12339,0,0,1,6.98,29.26l1.66-1.65L4.39,23.36,2.63,25.13a.3913.3913,0,0,0-.08.1c-.21-.28-.41-.56-.59-.85L4.04,22.3a.51347.51347,0,0,1,.71,0L9.7,27.25A.51339.51339,0,0,1,9.7,27.96Z"/><circle cx="16" cy="16" r="15.5" fill="#afaeb3"/><path fill="#8b8891" d="M6.03986,26.96014A15.48348,15.48348,0,0,1,16.5.52386a15.48489,15.48489,0,1,0,0,30.95221A15.429,15.429,0,0,1,6.03986,26.96014Z"/><circle cx="16" cy="16" r="13.5" fill="#fff4ca"/><path fill="#fdeb96" d="M7.454,25.5459A13.48465,13.48465,0,0,1,16.5,2.5238a13.48615,13.48615,0,1,0,0,26.95227A13.43658,13.43658,0,0,1,7.454,25.5459Z"/><path fill="#fdeb96" d="M11.16932,9.61988c.97876.333,1.84883-.64886,2.21551-.30256.31315.29574.02021,1.33449-.64416,1.89343A2.5,2.5,0,0,1,8.95382,9.92243c-.18568-.84813.21562-1.85.64415-1.89342C10.09976,7.97816,10.19056,9.28689,11.16932,9.61988Z"/><path fill="#fff" d="M11.16932,9.03821c.97876.333,1.84883-.64886,2.21551-.30256.31315.29574.02021,1.33449-.64416,1.89343A2.5,2.5,0,0,1,8.95382,9.34076c-.18568-.84813.21562-1.85.64415-1.89342C10.09976,7.3965,10.19056,8.70523,11.16932,9.03821Z"/><path fill="#fdeb96" d="M20.9633,22.5531c1.02864.10368,1.41224,1.35822,1.88963,1.19553.4077-.13894.57273-1.20551.20057-1.98992a2.5,2.5,0,0,0-3.97983-.40114c-.52122.69436-.57235,1.77241-.20058,1.98992C19.30842,23.60218,19.93466,22.44942,20.9633,22.5531Z"/><path fill="#fff" d="M20.9633,21.98533c1.02864.10368,1.41224,1.35822,1.88963,1.19553.4077-.13894.57273-1.20551.20057-1.98992a2.5,2.5,0,0,0-3.97983-.40114c-.52122.69436-.57235,1.77241-.20058,1.98991C19.30842,23.0344,19.93466,21.88164,20.9633,21.98533Z"/><path fill="#fdeb96" d="M21.3272,11.25832c-.78364-.67436-1.95739-.08841-2.16824-.54658-.18007-.39128.47953-1.24552,1.30456-1.516a2.5,2.5,0,0,1,3.03191,2.60912c-.14443.85612-.8908,1.63569-1.30455,1.516C21.7064,13.18066,22.11084,11.93268,21.3272,11.25832Z"/><path fill="#fff" d="M21.694,10.86973c-.78363-.67436-1.95738-.08841-2.16823-.54658-.18008-.39128.47953-1.24552,1.30455-1.516a2.5,2.5,0,0,1,3.03192,2.60912c-.14443.85612-.8908,1.63569-1.30456,1.516C22.07325,12.79207,22.47768,11.54409,21.694,10.86973Z"/><path fill="#fdeb96" d="M9.94832,20.03059c.5341.88521,1.83208.69475,1.88945,1.19583.049.42793-.84422,1.03371-1.71244,1.03323a2.5,2.5,0,0,1-2.06645-3.42488c.40435-.76831,1.3567-1.27608,1.71243-1.03323C10.18786,18.08591,9.41422,19.14539,9.94832,20.03059Z"/><path fill="#fff" d="M9.42987,20.248c.5341.88521,1.83208.69475,1.88944,1.19583.049.42793-.84422,1.03371-1.71244,1.03322a2.5,2.5,0,0,1-2.06645-3.42487c.40435-.76831,1.3567-1.27608,1.71244-1.03323C9.6694,18.30332,8.89576,19.3628,9.42987,20.248Z"/><ellipse cx="15.778" cy="15.897" fill="#fdeb96" rx="2" ry="1" transform="rotate(-42.064 15.778 15.897)"/><ellipse cx="16.177" cy="7.803" fill="#fdeb96" rx="1" ry="2" transform="rotate(-30 16.177 7.803)"/><ellipse cx="16.5" cy="7.5" fill="#b28966" rx="1" ry="2" transform="rotate(-30 16.5 7.5)"/><ellipse cx="7.695" cy="15" fill="#fdeb96" rx="2" ry="1" transform="rotate(-42.064 7.695 15)"/><ellipse cx="7.5" cy="14.5" fill="#b28966" rx="2" ry="1" transform="rotate(-42.064 7.5 14.5)"/><ellipse cx="24.925" cy="16.769" fill="#fdeb96" rx="2" ry="1" transform="rotate(-39.883 24.925 16.769)"/><ellipse cx="24.5" cy="16.5" fill="#b28966" rx="2" ry="1" transform="rotate(-39.883 24.5 16.5)"/><ellipse cx="15.183" cy="24.817" fill="#fdeb96" rx="1" ry="2" transform="rotate(-45 15.183 24.817)"/><ellipse cx="15.5" cy="24.5" fill="#b28966" rx="1" ry="2" transform="rotate(-45 15.5 24.5)"/><circle cx="17.5" cy="11.5" r=".5" fill="#afaeb3"/><circle cx="12.5" cy="6.5" r=".5" fill="#afaeb3"/><circle cx="6.5" cy="11.5" r=".5" fill="#afaeb3"/><circle cx="19.5" cy="15.5" r=".5" fill="#afaeb3"/><circle cx="11.5" cy="14.5" r=".5" fill="#afaeb3"/><circle cx="13.5" cy="19.5" r=".5" fill="#afaeb3"/><circle cx="17.5" cy="19.5" r=".5" fill="#afaeb3"/><circle cx="20.5" cy="6.5" r=".5" fill="#afaeb3"/><circle cx="26.5" cy="12.5" r=".5" fill="#afaeb3"/><circle cx="25.5" cy="19.5" r=".5" fill="#afaeb3"/><circle cx="11.5" cy="24.5" r=".5" fill="#afaeb3"/><ellipse cx="15.5" cy="15.5" fill="#b28966" rx="2" ry="1" transform="rotate(-42.064 15.5 15.5)"/></svg>