<svg xmlns="http://www.w3.org/2000/svg" data-name="Layer 1" viewBox="0 0 32 32"><path fill="#3c3b41" d="M16,31.48144a.99976.99976,0,0,1-.19-.01822L1.31,28.65677A1,1,0,0,1,.5,27.675V4.325a1,1,0,0,1,.81-.98178L15.81.53678A.99955.99955,0,0,1,16,.51856"/><path fill="#58565d" d="M16,.51856a.99976.99976,0,0,1,.19.01822l14.5,2.80645a1,1,0,0,1,.81.98178v23.35a1,1,0,0,1-.81.98178l-14.5,2.80645a.99955.99955,0,0,1-.19.01822"/><polygon fill="#fbbf13" points="31.5 10.5 16 8.5 .5 10.5 .5 7.5 16 5.5 31.5 7.5 31.5 10.5"/><polygon fill="#fdd402" points="31.5 10.5 16 8.5 16 5.5 31.5 7.5 31.5 10.5"/><path fill="#3c3b41" d="M16,28.5l15.5-3v2.175a1,1,0,0,1-.81.98178l-14.5,2.80645a.99955.99955,0,0,1-.19.01822"/><path fill="#2c2b2d" d="M16,31.48144a.99984.99984,0,0,1-.19-.01822L1.31,28.65677A1,1,0,0,1,.5,27.675V25.5l15.5,3"/><polygon fill="#fbbf13" points="4.5 15.5 14 14.5 14 11.5 4.5 12.5 4.5 15.5"/><polygon fill="#fbbf13" points=".5 12.92 2.5 12.71 2.5 15.71 .5 15.92 .5 12.92"/><polyline fill="#8b8891" points="24.5 26.855 24.5 12.206 18 11.5 18 28.11"/><polygon fill="#fdd402" points="26.5 12.39 26.5 15.39 31.5 15.92 31.5 12.92 26.5 12.39"/></svg>