<svg xmlns="http://www.w3.org/2000/svg" data-name="Layer 1" viewBox="0 0 32 32"><path fill="#e0e0e2" d="M16.73,28.84c0,.11-.01.22-.02.32a4.02714,4.02714,0,0,1-.42,1.16,2.6449,2.6449,0,0,1-2.21,1.18H3.5v-3h7l4-3,1.46,1.46A2.64815,2.64815,0,0,1,16.73,28.84Z"/><polygon fill="#fdc475" points="26.348 26.153 24.198 24.971 23.254 27.373 24.72 28.139 26.348 26.153"/><path fill="#ffdaa7" d="M24.403,29.60618l.18262-1.46545a2.42227,2.42227,0,0,1,2.72154-2.1018l1.47314.195a2.47069,2.47069,0,0,1,2.1179,2.74239l-.04993.40065a2.42228,2.42228,0,0,1-2.72155,2.1018L25.58986,31.143A1.38453,1.38453,0,0,1,24.403,29.60618Z"/><path fill="#8b8891" d="M28.9485,26.26l-.37,2.17-2.85-1.95-.01-.01-.04-.06a2.36467,2.36467,0,0,1,1.63-.37l1.47.19C28.83851,26.24,28.8885,26.25,28.9485,26.26Z"/><path fill="#329e65" d="M16.73,28.84c0,.11-.01.22-.02.32l-1.22.27-.57.01-4.31.06h-3l.09-1h2.8l4-3,1.46,1.46A2.64815,2.64815,0,0,1,16.73,28.84Z"/><path fill="#37b678" d="M24.684,24.71v.79l-.93247,1.86494a.26242.26242,0,0,1-.21823.14455L18.924,27.8l-.73.04h-.01l-2.62.59-.57.01-4.31.06h-3l.44-4.83a4.99627,4.99627,0,0,1,6.47-4.32l7.98,2.49A2.99451,2.99451,0,0,1,24.684,24.71Z"/><path fill="#ffdaa7" d="M20.38569 29.32223a9.08891 9.08891 0 0 0 1.69941.60372c.65227.16094 1.56431 1.09036 1.4862 1.50917a9.269 9.269 0 0 1-3.36045-.21626zM3.5 31.5H.76082a.188.188 0 0 1-.17834-.24743l.46167-1.385A2 2 0 0 1 2.94152 28.5H3.5z"/><path fill="#329e65" d="M18.09,27.41l.65.39-.73.04H18l-2.62.59-.57.01a1.00677,1.00677,0,0,1-.01-1.16l1.88-2.65,2.76,1.23Z"/><path fill="#37b678" d="M20.20231,26.20856l-1.34163,1.54391,2.00353,1.20094a.29015.29015,0,0,1,.13732.2948l-.29581,1.84517a.29015.29015,0,0,1-.41792.21275l-4.3559-2.2129a1,1,0,0,1-.364-1.46823l1.87325-2.65378"/><path fill="#e0e0e2" d="M28.94849 26.26l-.88726 5.21008c.04765.00727.11794.01665.20322.023a2.79438 2.79438 0 0 0 2.45966-1.05644 2.26921 2.26921 0 0 0 .35461-.83863l.08272-.4053a2.56092 2.56092 0 0 0-.25182-1.604A2.73947 2.73947 0 0 0 28.94849 26.26zM18.01463 5.55686l.87244-1.7279a.20052.20052 0 0 1 .35961.00327l.84081 1.74351a.20053.20053 0 0 0 .15.11107l1.91294.29578a.20052.20052 0 0 1 .108.343L20.86005 7.66405a.20054.20054 0 0 0-.05928.177l.30982 1.91071a.20051.20051 0 0 1-.29285.20872l-1.705-.91631a.20051.20051 0 0 0-.18661-.0017l-1.72145.8851a.20052.20052 0 0 1-.289-.214l.34458-1.90475a.20053.20053 0 0 0-.05605-.178L15.83041 6.26706a.20052.20052 0 0 1 .11425-.341l1.918-.26089A.20047.20047 0 0 0 18.01463 5.55686z"/><path fill="#d9d8da" d="M18.30914,8.11444a.20042.20042,0,0,0-.05609-.178L16.87933,6.57275a.20052.20052,0,0,1,.11426-.341l1.918-.26086a.20055.20055,0,0,0,.152-.10834L19.658,4.68518l-.41132-.853a.20054.20054,0,0,0-.35962-.00329l-.87243,1.7279a.20061.20061,0,0,1-.152.10834l-1.918.26087a.20051.20051,0,0,0-.1142.341l1.37372,1.36371a.20043.20043,0,0,1,.056.178L16.91565,9.7135a.2005.2005,0,0,0,.289.214l.85608-.44019Z"/><path fill="#e0e0e2" d="M12.207,2.97225a6.85605,6.85605,0,0,1,2.13834-1.22136.19974.19974,0,0,1,.21993.3145,7.05529,7.05529,0,0,0,6.56266,11.366.19948.19948,0,0,1,.16309.34682,6.87131,6.87131,0,0,1-2.71942,1.42769A7.05607,7.05607,0,0,1,12.207,2.97225Z"/><path fill="#d9d8da" d="M21.29193 13.49194a.18669.18669 0 0 0-.164-.06054c-.17761.02624-.35565.02606-.53369.03863C20.82648 13.48663 21.058 13.49835 21.29193 13.49194zM12.88751 13.54028a7.09334 7.09334 0 0 1 .31946-10.568 6.80565 6.80565 0 0 1 1.33447-.87171c.00879-.01123.015-.024.02381-.03515a.19974.19974 0 0 0-.21991-.31452A6.85642 6.85642 0 0 0 12.207 2.97223a7.03809 7.03809 0 0 0 5.02734 12.44153A7.069 7.069 0 0 1 12.88751 13.54028z"/></svg>