<svg xmlns="http://www.w3.org/2000/svg" data-name="Layer 1" viewBox="0 0 32 32"><path fill="#ffdaa7" d="M26.32,6.34l-1.04,1.9a3.54749,3.54749,0,0,1-3.4,1.82,3.59852,3.59852,0,0,1-1.36-.4L20,9.38a3.44353,3.44353,0,0,1-1.42-4.7l1.03-1.9a3.54445,3.54445,0,0,1,4.77-1.41l.51.27a3.05955,3.05955,0,0,1,.59.4A3.43039,3.43039,0,0,1,26.32,6.34Z"/><path fill="#8b8891" d="M25.16,31.5H9.48V27.36H19.2l2.91-1.88,1.16-.76,3.6,3.09A2.2268,2.2268,0,0,1,25.16,31.5Z"/><path fill="#ffdaa7" d="M9.47525,31.5V27.36061a2.85426,2.85426,0,0,0-1.52359.42448,4.376,4.376,0,0,0-1.25509,1.65627A6.57023,6.57023,0,0,1,4.57572,31.5Z"/><path fill="#58565d" d="M26.87,28.81a26.22459,26.22459,0,0,1-7.9.68c-2.53-.18-4.25995-.33-5.61-1.67a3.38083,3.38083,0,0,1-.4-.46H19.2l2.91-1.88A14.96047,14.96047,0,0,0,26.87,28.81Z"/><path fill="#8b8891" d="M26.87,27.81a26.22459,26.22459,0,0,1-7.9.68c-2.53-.18-4.25995-.33-5.61-1.67a5.67056,5.67056,0,0,1-1.52-3.03,4.67915,4.67915,0,0,1-.09-.91,5.586,5.586,0,0,1,.2-1.46c.8-2.89,1.61-5.77,2.41-8.66a3.21977,3.21977,0,0,1,3.08-2.26h.85c.72.36,1.44.71,2.16,1.07.28.71.66,1.73,1.05,2.99.23.75.39,1.26.49,1.68.05.21.09.39.12.57a5.65589,5.65589,0,0,1,.08.89c0,1.93-1.08,3.05-1.08,4.45C21.11,23.49,22.1,25.42,26.87,27.81Z"/><path fill="#58565d" d="M20.00263,12.39535l-.45574,8.19735,3.22319,3.97219-.97879,2.79572L16.6185,23.02877a2.142,2.142,0,0,1-.76764-1.64215V16.24108"/><path fill="#8b8891" d="M20.44526,11.57135l-.45573,8.19736,3.22318,3.97219-.97878,2.79572-5.17279-4.33184a2.142,2.142,0,0,1-.76764-1.64215V15.41709"/><path fill="#58565d" d="M22.98219,24.26993a11.47718,11.47718,0,0,0,1.89792,1.25332c.75.39462,1.58412,1.80648,1.36079,2.29412A11.72861,11.72861,0,0,1,22.19,26.53262l.74012-2.114"/><path fill="#ffdaa7" d="M23.13787,23.95471A11.47718,11.47718,0,0,0,25.03579,25.208c.75.39463,1.58412,1.80648,1.36079,2.29412a11.73922,11.73922,0,0,1-2.22017-.50143,12.40855,12.40855,0,0,1-1.876-.78332l.68183-1.94747"/><path fill="#58565d" d="M21.99,16.24a17.43778,17.43778,0,0,1-.49-1.68c-.39-1.26-.77-2.28-1.05-2.99-.72-.36-1.44-.71-2.16-1.07h-.85a3.21974,3.21974,0,0,0-3.08,2.26c-.8,2.89-1.61,5.77-2.41,8.66a5.58592,5.58592,0,0,0-.2,1.46q5.22-2.58,10.44-5.18Z"/><path fill="#fdc475" d="M25.48,2.04A6.57318,6.57318,0,0,0,23.5,3.59a8.60674,8.60674,0,0,0-1.62,6.47,3.59852,3.59852,0,0,1-1.36-.4L20,9.38a3.44353,3.44353,0,0,1-1.42-4.7l1.03-1.9a3.54445,3.54445,0,0,1,4.77-1.41l.51.27A3.05955,3.05955,0,0,1,25.48,2.04Z"/><path fill="#afaeb3" d="M26.67,5.21c-.13995.41-.27.82-.41,1.23a6.94672,6.94672,0,0,0-2.71-2.91c-.02-.01-.03-.02-.05-.03a7.00721,7.00721,0,0,0-3.74-.91l.72-.83c.02-.02.04-.05005.06-.07a.031.031,0,0,1,.02-.01,3.34546,3.34546,0,0,1,4.24-.56l.5.32a.26352.26352,0,0,1,.06.05,2.33212,2.33212,0,0,1,.46.37h.01A3.2558,3.2558,0,0,1,26.67,5.21Z"/><path fill="#58565d" d="M25.82,1.86a6.48542,6.48542,0,0,0-1.53.96,6.35887,6.35887,0,0,0-.74.71c-.02-.01-.03-.02-.05-.03a7.00721,7.00721,0,0,0-3.74-.91l.72-.83c.02-.02.04-.05005.06-.07a.031.031,0,0,1,.02-.01,3.56387,3.56387,0,0,1,3.82-.31l.51.27a.745.745,0,0,0,.38-.09.3484.3484,0,0,0,.09-.06A2.33212,2.33212,0,0,1,25.82,1.86Z"/><path fill="#8b8891" d="M25.52089,1.59364A6.93373,6.93373,0,0,0,22.5,3.593c-2.64505,3.08611-1.49083,7.91532-1,9.96677a17.983,17.983,0,0,0,1,2.99L10.5,22.5c-.27737-3.26891-.34953-10.19225,4-16,1.08791-1.45264,5.02321-6.70749,9-5.897A4.70932,4.70932,0,0,1,25.52089,1.59364Z"/><path fill="#58565d" d="M15.5,6.5C16.46008,5.218,19.63806.98114,23.10486.55878,19.26556.15369,15.55182,5.09552,14.5,6.5c-4.34955,5.80774-4.27734,12.73108-4,16l.96448-.47827C11.22607,18.59308,11.34906,12.04254,15.5,6.5Z"/></svg>